SplineFontDB: 3.2
FontName: Rocohn-Black
FullName: Rocohn Black
FamilyName: Rocohn
Weight: Black
Copyright: Copyright (c) 2019, Ronen.Cohen
UComments: "2019-9-27: Created with FontForge (http://fontforge.org)"
Version: 001.000
ItalicAngle: 0
UnderlinePosition: -100
UnderlineWidth: 50
Ascent: 800
Descent: 200
InvalidEm: 0
LayerCount: 2
Layer: 0 0 "Back" 1
Layer: 1 0 "Fore" 0
XUID: [1021 1023 -1521988005 18956]
StyleMap: 0x0000
FSType: 0
OS2Version: 0
OS2_WeightWidthSlopeOnly: 0
OS2_UseTypoMetrics: 1
CreationTime: 1569588779
ModificationTime: 1579875419
OS2TypoAscent: 0
OS2TypoAOffset: 1
OS2TypoDescent: 0
OS2TypoDOffset: 1
OS2TypoLinegap: 90
OS2WinAscent: 0
OS2WinAOffset: 1
OS2WinDescent: 0
OS2WinDOffset: 1
HheadAscent: 0
HheadAOffset: 1
HheadDescent: 0
HheadDOffset: 1
OS2Vendor: 'PfEd'
MarkAttachClasses: 1
DEI: 91125
Encoding: iso8859-8
UnicodeInterp: none
NameList: AGL For New Fonts
DisplaySize: -48
AntiAlias: 1
FitToEm: 0
WinInfo: 0 24 9
BeginPrivate: 0
EndPrivate
Grid
2000 595.600006104 m 1024
EndSplineSet
BeginChars: 256 235

StartChar: uni05D0
Encoding: 224 1488 0
Width: 734
VWidth: 0
Flags: HW
LayerCount: 2
Fore
SplineSet
528.5 212.740234375 m 1
 700.159179688 0 l 1
 518.159179688 0 l 1
 270.979492188 306.25 l 1
 217.69921875 0 l 1
 70.69921875 0 l 1
 153.69921875 451.639648438 l 1
 34 600 l 1
 216 600 l 1
 434.319335938 329.440429688 l 1
 469.759765625 398.080078125 496.94921875 482 517.120117188 584.860351562 c 2
 520.120117188 600 l 1
 670.629882812 600 l 1
 666.1796875 577.599609375 l 2
 650.109375 496.650390625 628.939453125 422.870117188 603.239257812 358.299804688 c 0
 581.909179688 304.740234375 556.790039062 255.799804688 528.5 212.740234375 c 1
EndSplineSet
EndChar

StartChar: uni05D1
Encoding: 225 1489 1
Width: 642
VWidth: 0
Flags: HW
LayerCount: 2
Fore
SplineSet
526.969726562 144.450195312 m 1
 608.809570312 144.450195312 l 1
 608.809570312 0 l 1
 34 0 l 1
 34 144.450195312 l 1
 382.51953125 144.450195312 l 1
 382.51953125 318.9296875 l 2
 382.51953125 397.01953125 318.979492188 460.559570312 240.889648438 460.559570312 c 0
 190.629882812 460.559570312 137.309570312 459.299804688 82.3994140625 456.8203125 c 2
 64.2197265625 456 l 1
 53.8095703125 593.129882812 l 1
 72.19921875 594.8203125 l 2
 145.6796875 601.580078125 202.4296875 605 240.889648438 605 c 0
 240.9921875 605 241.16015625 605 241.262695312 605 c 0
 273.0390625 605 322.563476562 594.916015625 351.809570312 582.490234375 c 0
 410.712890625 557.458984375 479.028320312 489.420898438 504.299804688 430.620117188 c 0
 516.813476562 401.412109375 526.969726562 351.918945312 526.969726562 320.143554688 c 0
 526.969726562 320.045898438 526.969726562 319.887695312 526.969726562 319.790039062 c 2
 526.969726562 144.450195312 l 1
EndSplineSet
EndChar

StartChar: uni05D2
Encoding: 226 1490 2
Width: 497
VWidth: 0
Flags: HW
LayerCount: 2
Fore
SplineSet
349.490234375 600 m 1
 463.319335938 0 l 1
 316.319335938 0 l 1
 294.169921875 117.240234375 l 1
 294.169921875 117.240234375 251.649414062 0 52.6494140625 0 c 2
 34 0.099609375 l 1
 34 144.400390625 l 1
 55.5302734375 144.400390625 l 2
 137.120117188 143.530273438 237.399414062 177 268.509765625 252.259765625 c 1
 229.950195312 455.620117188 l 1
 128.950195312 455.620117188 l 1
 128.950195312 600 l 1
 349.490234375 600 l 1
EndSplineSet
EndChar

StartChar: uni05D3
Encoding: 227 1491 3
Width: 615
VWidth: 0
Flags: HW
LayerCount: 2
Fore
SplineSet
34 600 m 1
 581.779296875 600 l 1
 581.779296875 455.620117188 l 1
 501.649414062 455.620117188 l 1
 501.649414062 0 l 1
 357.26953125 0 l 1
 357.26953125 455.620117188 l 1
 34 455.620117188 l 1
 34 600 l 1
EndSplineSet
EndChar

StartChar: uni05D4
Encoding: 228 1492 4
Width: 619
VWidth: 0
Flags: HW
LayerCount: 2
Fore
SplineSet
43.060546875 0 m 1
 43.060546875 317.66015625 l 1
 187.510742188 330.379882812 l 1
 187.510742188 0 l 1
 43.060546875 0 l 1
562.55078125 430.620117188 m 0
 575.064453125 401.422851562 585.220703125 351.9453125 585.220703125 320.178710938 c 0
 585.220703125 320.071289062 585.220703125 319.897460938 585.220703125 319.790039062 c 2
 585.220703125 0 l 1
 440.770507812 0 l 1
 440.770507812 318.9296875 l 2
 440.770507812 397.01953125 377.240234375 460.559570312 299.140625 460.559570312 c 0
 297.590820312 460.559570312 144.390625 460.51953125 62.5908203125 456.8203125 c 2
 44.4208984375 456 l 1
 34 593.129882812 l 1
 52.390625 594.8203125 l 2
 129.810546875 601.940429688 266.350585938 605 299.140625 605 c 0
 299.240234375 605 299.403320312 605 299.50390625 605 c 0
 331.279296875 605 380.8046875 594.916015625 410.05078125 582.490234375 c 0
 468.958007812 557.4609375 537.27734375 489.422851562 562.55078125 430.620117188 c 0
EndSplineSet
EndChar

StartChar: uni05D5
Encoding: 229 1493 5
Width: 212
VWidth: 0
Flags: HW
LayerCount: 2
Fore
SplineSet
34 0 m 1
 34 600 l 1
 178.380859375 600 l 1
 178.380859375 0 l 1
 34 0 l 1
EndSplineSet
EndChar

StartChar: uni05D6
Encoding: 230 1494 6
Width: 403
VWidth: 0
Flags: HW
LayerCount: 2
Fore
SplineSet
350.899414062 586.849609375 m 2
 369.580078125 586.849609375 l 1
 369.580078125 443 l 1
 350.899414062 443 l 2
 325.240234375 443 299.969726562 444 275.559570312 445.879882812 c 1
 275.559570312 0 l 1
 131.759765625 0 l 1
 131.759765625 469.719726562 l 1
 109.232421875 475.650390625 73.333984375 487.329101562 51.6298828125 495.790039062 c 2
 34 502.650390625 l 1
 86 631.450195312 l 1
 102.569335938 626.049804688 l 2
 184.649414062 599.309570312 263.559570312 586.849609375 350.899414062 586.849609375 c 2
EndSplineSet
EndChar

StartChar: uni05D7
Encoding: 231 1495 7
Width: 642
VWidth: 0
Flags: HW
LayerCount: 2
Fore
SplineSet
586.310546875 430.620117188 m 0
 598.82421875 401.412109375 608.98046875 351.918945312 608.98046875 320.143554688 c 0
 608.98046875 320.045898438 608.98046875 319.887695312 608.98046875 319.790039062 c 2
 608.98046875 0 l 1
 464.530273438 0 l 1
 464.530273438 318.919921875 l 2
 464.530273438 397.009765625 400.990234375 460.549804688 322.890625 460.549804688 c 0
 306.970703125 460.549804688 252.190429688 460.419921875 178.450195312 458.879882812 c 1
 178.450195312 0 l 1
 34 0 l 1
 34 591.540039062 l 1
 51.5302734375 592.700195312 l 2
 179.890625 601.150390625 282.140625 605 322.890625 605 c 0
 322.993164062 605 323.159179688 605 323.26171875 605 c 0
 355.038085938 605 404.564453125 594.916015625 433.810546875 582.490234375 c 0
 492.717773438 557.4609375 561.037109375 489.422851562 586.310546875 430.620117188 c 0
EndSplineSet
EndChar

StartChar: uni05D8
Encoding: 232 1496 8
Width: 678
VWidth: 0
Flags: HW
LayerCount: 2
Fore
SplineSet
573.299804688 535.669921875 m 0
 618.889648438 490.080078125 644 429.690429688 644 365.629882812 c 2
 644 296.299804688 l 2
 644 296.188476562 644 296.0078125 644 295.897460938 c 0
 644 262.026367188 633.171875 209.271484375 619.830078125 178.139648438 c 0
 592.893554688 115.442382812 520.057617188 42.9072265625 457.25 16.23046875 c 0
 425.95703125 2.9814453125 372.981445312 -7.7705078125 339 -7.7705078125 c 0
 305.018554688 -7.7705078125 252.04296875 2.9814453125 220.75 16.23046875 c 0
 157.942382812 42.9072265625 85.1064453125 115.442382812 58.169921875 178.139648438 c 0
 44.828125 209.271484375 34 262.026367188 34 295.897460938 c 0
 34 296.0078125 34 296.188476562 34 296.299804688 c 2
 34 606.540039062 l 1
 188 606.540039062 l 1
 188 297.23046875 l 2
 188 214 255.740234375 146.23046875 339 146.23046875 c 0
 422.259765625 146.23046875 490 213.969726562 490 297.23046875 c 2
 490 357.740234375 l 2
 489.939453125 409.959960938 447.509765625 452.412109375 395.290039062 452.5 c 2
 394.459960938 452.5 l 2
 374.33984375 452.483398438 345.927734375 441.485351562 331.040039062 427.950195312 c 2
 326.9296875 424.23046875 l 1
 270.9296875 566.450195312 l 1
 304.125 588.486328125 363.40234375 606.370117188 403.245117188 606.370117188 c 0
 403.260742188 606.370117188 403.28515625 606.370117188 403.299804688 606.370117188 c 0
 467.299804688 606.370117188 527.709960938 581.259765625 573.299804688 535.669921875 c 0
EndSplineSet
EndChar

StartChar: uni05D9
Encoding: 233 1497 9
Width: 222
VWidth: 0
Flags: HW
LayerCount: 2
Fore
SplineSet
34 600 m 1
 188 600 l 1
 188 261.33984375 l 1
 34 247.76953125 l 1
 34 600 l 1
EndSplineSet
EndChar

StartChar: uni05DA
Encoding: 234 1498 10
Width: 591
VWidth: 0
Flags: HW
LayerCount: 2
Fore
SplineSet
252.099609375 452.540039062 m 0
 222.209960938 452.540039062 144.099609375 452.150390625 64.4794921875 448.549804688 c 2
 45.099609375 447.6796875 l 1
 34 593.889648438 l 1
 53.599609375 595.690429688 l 2
 134.719726562 603.150390625 213.359375 606.540039062 252.099609375 606.540039062 c 0
 252.208984375 606.540039062 252.385742188 606.540039062 252.494140625 606.540039062 c 0
 286.37109375 606.540039062 339.170898438 595.788085938 370.349609375 582.540039062 c 0
 433.157226562 555.86328125 505.993164062 483.327148438 532.9296875 420.629882812 c 0
 546.271484375 389.498046875 557.099609375 336.743164062 557.099609375 302.873046875 c 0
 557.099609375 302.76171875 557.099609375 302.581054688 557.099609375 302.469726562 c 2
 557.099609375 -152.700195312 l 1
 403.099609375 -152.700195312 l 1
 403.099609375 301.540039062 l 2
 403.099609375 384.809570312 335.359375 452.540039062 252.099609375 452.540039062 c 0
EndSplineSet
EndChar

StartChar: uni05DB
Encoding: 235 1499 11
Width: 591
VWidth: 0
Flags: HW
LayerCount: 2
Fore
SplineSet
532.9296875 420.629882812 m 0
 546.271484375 389.500976562 557.099609375 336.749023438 557.099609375 302.880859375 c 0
 557.099609375 302.767578125 557.099609375 302.583007812 557.099609375 302.469726562 c 2
 557.099609375 297.610351562 l 2
 557.099609375 297.501953125 557.099609375 297.327148438 557.099609375 297.219726562 c 0
 557.099609375 263.345703125 546.271484375 210.584960938 532.9296875 179.450195312 c 0
 505.987304688 116.758789062 433.151367188 44.2236328125 370.349609375 17.5400390625 c 0
 339.16015625 4.2919921875 286.345703125 -6.4599609375 252.459960938 -6.4599609375 c 0
 252.360351562 -6.4599609375 252.19921875 -6.4599609375 252.099609375 -6.4599609375 c 0
 213.359375 -6.4599609375 134.719726562 -3.0595703125 53.599609375 4.3896484375 c 2
 34 6.1904296875 l 1
 45.099609375 152.41015625 l 1
 64.4794921875 151.549804688 l 2
 144.099609375 147.940429688 222.209960938 147.549804688 252.099609375 147.549804688 c 0
 335.359375 147.549804688 403.099609375 215.290039062 403.099609375 298.549804688 c 2
 403.099609375 301.549804688 l 2
 403.099609375 384.8203125 335.359375 452.549804688 252.099609375 452.549804688 c 0
 222.209960938 452.549804688 144.099609375 452.150390625 64.4794921875 448.549804688 c 2
 45.099609375 447.6796875 l 1
 34 593.889648438 l 1
 53.599609375 595.690429688 l 2
 134.719726562 603.150390625 213.359375 606.540039062 252.099609375 606.540039062 c 0
 252.208984375 606.540039062 252.385742188 606.540039062 252.494140625 606.540039062 c 0
 286.37109375 606.540039062 339.170898438 595.788085938 370.349609375 582.540039062 c 0
 433.157226562 555.86328125 505.993164062 483.327148438 532.9296875 420.629882812 c 0
EndSplineSet
EndChar

StartChar: uni05DC
Encoding: 236 1500 12
Width: 612
VWidth: 0
Flags: HW
LayerCount: 2
Fore
SplineSet
247.470703125 0 m 1
 408.919921875 446 l 1
 34 446 l 1
 34 746.900390625 l 1
 188.010742188 746.900390625 l 1
 188.010742188 600 l 1
 578.73046875 600 l 1
 578.73046875 462.6796875 l 1
 411.25 0 l 1
 247.470703125 0 l 1
EndSplineSet
EndChar

StartChar: uni05DD
Encoding: 237 1501 13
Width: 681
VWidth: 0
Flags: HW
LayerCount: 2
Fore
SplineSet
622.830078125 420.629882812 m 0
 636.171875 389.490234375 647 336.721679688 647 302.844726562 c 0
 647 302.73828125 647 302.56640625 647 302.459960938 c 2
 647 -6.5400390625 l 1
 34 -6.5400390625 l 1
 34 592.200195312 l 1
 52.6904296875 593.4296875 l 2
 189.48046875 602.440429688 298.549804688 606.540039062 342 606.540039062 c 0
 342.109375 606.540039062 342.286132812 606.540039062 342.39453125 606.540039062 c 0
 376.26953125 606.540039062 429.064453125 595.788085938 460.240234375 582.540039062 c 0
 523.051757812 555.864257812 595.891601562 483.329101562 622.830078125 420.629882812 c 0
342 452.540039062 m 0
 325.020507812 452.540039062 266.620117188 452.41015625 188 450.76953125 c 1
 188 147.459960938 l 1
 493 147.459960938 l 1
 493 301.540039062 l 2
 493 384.809570312 425.259765625 452.540039062 342 452.540039062 c 0
EndSplineSet
EndChar

StartChar: uni05DE
Encoding: 238 1502 14
Width: 678
VWidth: 0
Flags: HW
LayerCount: 2
Fore
SplineSet
592.849609375 487.469726562 m 0
 627.369140625 438.809570312 644.279296875 379.450195312 644.239257812 311.870117188 c 2
 644.239257812 235.700195312 l 2
 644.239257812 171.700195312 619.099609375 111.290039062 573.540039062 65.7001953125 c 0
 527.979492188 20.1103515625 467.599609375 -5 403.540039062 -5 c 0
 403.47265625 -5 403.36328125 -5 403.296875 -5 c 0
 379.814453125 -5 342.873046875 1.58984375 320.83984375 9.7099609375 c 2
 306.5 15 l 1
 319.459960938 162.120117188 l 1
 342.619140625 155.700195312 l 2
 384.459960938 144.08984375 428.25 150.400390625 456.879882812 172.169921875 c 0
 478.729492188 188.780273438 490.279296875 213.490234375 490.279296875 243.629882812 c 2
 490.279296875 311.870117188 l 2
 490.279296875 404.509765625 426.489257812 446.940429688 366.790039062 455.759765625 c 0
 297.229492188 466.030273438 214 434.059570312 188 353.280273438 c 1
 188 0 l 1
 34 0 l 1
 34 600 l 1
 188 600 l 1
 188 505 l 1
 278.099609375 657 498.549804688 620.379882812 592.849609375 487.469726562 c 0
EndSplineSet
EndChar

StartChar: uni05DF
Encoding: 239 1503 15
Width: 222
VWidth: 0
Flags: HW
LayerCount: 2
Fore
SplineSet
34 -152.700195312 m 1
 34 600 l 1
 188 600 l 1
 188 -152.700195312 l 1
 34 -152.700195312 l 1
EndSplineSet
EndChar

StartChar: uni05E0
Encoding: 240 1504 16
Width: 405
VWidth: 0
Flags: HW
LayerCount: 2
Fore
SplineSet
111.400390625 600 m 1
 371.740234375 600 l 1
 371.740234375 234.16015625 l 2
 371.740234375 170.16015625 346.58984375 109.759765625 301.040039062 64.16015625 c 0
 255.490234375 18.5595703125 195.099609375 -6.5400390625 131.040039062 -6.5400390625 c 0
 130.982421875 -6.5400390625 130.888671875 -6.5400390625 130.830078125 -6.5400390625 c 0
 107.340820312 -6.5400390625 70.3896484375 0.0546875 48.349609375 8.1796875 c 2
 34 13.4697265625 l 1
 47 160.580078125 l 1
 70.1796875 154.150390625 l 2
 112.030273438 142.540039062 155.8203125 148.860351562 184.450195312 170.629882812 c 0
 206.299804688 187.240234375 217.83984375 211.950195312 217.83984375 242.08984375 c 2
 217.83984375 446 l 1
 111.400390625 446 l 1
 111.400390625 600 l 1
EndSplineSet
EndChar

StartChar: uni05E1
Encoding: 241 1505 17
Width: 678
VWidth: 0
Flags: HW
LayerCount: 2
Fore
SplineSet
619.830078125 420.629882812 m 0
 633.171875 389.500976562 644 336.749023438 644 302.880859375 c 0
 644 302.767578125 644 302.583007812 644 302.469726562 c 2
 644 296.610351562 l 2
 644 296.501953125 644 296.327148438 644 296.219726562 c 0
 644 262.345703125 633.171875 209.584960938 619.830078125 178.450195312 c 0
 592.887695312 115.758789062 520.051757812 43.2236328125 457.25 16.5400390625 c 0
 425.95703125 3.2919921875 372.981445312 -7.4599609375 339 -7.4599609375 c 0
 305.018554688 -7.4599609375 252.04296875 3.2919921875 220.75 16.5400390625 c 0
 157.948242188 43.2236328125 85.1123046875 115.758789062 58.169921875 178.450195312 c 0
 44.828125 209.584960938 34 262.345703125 34 296.219726562 c 0
 34 296.327148438 34 296.501953125 34 296.610351562 c 2
 34 302.469726562 l 2
 34 302.583007812 34 302.767578125 34 302.880859375 c 0
 34 336.749023438 44.828125 389.500976562 58.169921875 420.629882812 c 0
 85.1064453125 483.327148438 157.942382812 555.86328125 220.75 582.540039062 c 0
 252.04296875 595.788085938 305.018554688 606.540039062 339 606.540039062 c 0
 372.981445312 606.540039062 425.95703125 595.788085938 457.25 582.540039062 c 0
 520.057617188 555.86328125 592.893554688 483.327148438 619.830078125 420.629882812 c 0
339 146.540039062 m 0
 422.259765625 146.540039062 490 214.280273438 490 297.540039062 c 2
 490 301.540039062 l 2
 490 384.809570312 422.259765625 452.540039062 339 452.540039062 c 0
 255.740234375 452.540039062 188 384.809570312 188 301.540039062 c 2
 188 297.540039062 l 2
 188 214.280273438 255.740234375 146.540039062 339 146.540039062 c 0
EndSplineSet
EndChar

StartChar: uni05E2
Encoding: 242 1506 18
Width: 685
VWidth: 0
Flags: HW
LayerCount: 2
Fore
SplineSet
491.270507812 600 m 1
 651.120117188 599.990234375 l 1
 650.709960938 597.139648438 l 2
 633.620117188 478.639648438 607.040039062 373.51953125 571.709960938 284.700195312 c 0
 540.360351562 205.9296875 502.580078125 139.559570312 456.209960938 81.9296875 c 0
 371.459960938 -23.3603515625 276.110351562 -75.3203125 199.459960938 -117.0703125 c 0
 194.20703125 -119.930664062 189.037109375 -122.75390625 183.950195312 -125.540039062 c 2
 166.020507812 -135.370117188 l 1
 100.690429688 -9.73046875 l 1
 117.83984375 -0.330078125 l 2
 150.1484375 17.3076171875 199.338867188 50.724609375 227.639648438 74.259765625 c 1
 34 600 l 1
 200.129882812 600 l 1
 349.870117188 186 l 1
 418.58984375 280.76953125 464.969726562 416.709960938 491.270507812 600 c 1
EndSplineSet
EndChar

StartChar: uni05E3
Encoding: 243 1507 19
Width: 670
VWidth: 0
Flags: HW
LayerCount: 2
Fore
SplineSet
101.930664062 231.290039062 m 0
 57.490234375 269.51953125 34 321.419921875 34 381.379882812 c 0
 34 505.540039062 135.010742188 606.540039062 259.169921875 606.540039062 c 2
 331.560546875 606.540039062 l 2
 331.668945312 606.540039062 331.845703125 606.540039062 331.955078125 606.540039062 c 0
 365.83203125 606.540039062 418.630859375 595.788085938 449.810546875 582.540039062 c 0
 512.618164062 555.86328125 585.454101562 483.327148438 612.390625 420.629882812 c 0
 625.732421875 389.500976562 636.560546875 336.749023438 636.560546875 302.880859375 c 0
 636.560546875 302.767578125 636.560546875 302.583007812 636.560546875 302.469726562 c 2
 636.560546875 -152.700195312 l 1
 482.560546875 -152.700195312 l 1
 482.560546875 301.490234375 l 2
 482.560546875 384.759765625 414.8203125 452.490234375 331.560546875 452.490234375 c 2
 259.169921875 452.490234375 l 2
 219.93359375 452.446289062 188.049804688 420.56640625 188 381.330078125 c 0
 188 356.450195312 203.379882812 334.580078125 233.720703125 316.330078125 c 0
 246.720703125 308.627929688 269.08984375 299.099609375 283.650390625 295.059570312 c 2
 304.83984375 289.790039062 l 1
 263.200195312 168.690429688 l 1
 247.100585938 170.690429688 l 2
 190.810546875 177.66015625 139.260742188 199.1796875 101.930664062 231.290039062 c 0
EndSplineSet
EndChar

StartChar: uni05E4
Encoding: 244 1508 20
Width: 674
VWidth: 0
Flags: HW
LayerCount: 2
Fore
SplineSet
616.110351562 420.549804688 m 0
 629.452148438 389.415039062 640.280273438 336.654296875 640.280273438 302.780273438 c 0
 640.280273438 302.672851562 640.280273438 302.498046875 640.280273438 302.389648438 c 2
 640.280273438 297.530273438 l 2
 640.280273438 297.416992188 640.280273438 297.232421875 640.280273438 297.119140625 c 0
 640.280273438 263.250976562 629.452148438 210.499023438 616.110351562 179.370117188 c 0
 589.178710938 116.67578125 516.3515625 44.140625 453.549804688 17.4599609375 c 0
 422.37109375 4.2119140625 369.572265625 -6.5400390625 335.6953125 -6.5400390625 c 0
 335.5859375 -6.5400390625 335.409179688 -6.5400390625 335.299804688 -6.5400390625 c 0
 294.990234375 -6.5400390625 197.83984375 -3.099609375 117.299804688 4.3095703125 c 2
 97.7001953125 6.1103515625 l 1
 108.810546875 152.360351562 l 1
 128.180664062 151.490234375 l 2
 212.150390625 147.6796875 315.430664062 147.490234375 335.280273438 147.490234375 c 0
 418.540039062 147.490234375 486.280273438 215.219726562 486.280273438 298.490234375 c 2
 486.280273438 301.490234375 l 2
 486.280273438 384.75 418.540039062 452.490234375 335.280273438 452.490234375 c 2
 259.169921875 452.490234375 l 2
 219.930664062 452.490234375 188 434.559570312 188 395.3203125 c 0
 188 333.83984375 282.73046875 319.240234375 283.680664062 319 c 2
 253.100585938 216.610351562 l 1
 155.280273438 216.610351562 34 267.459960938 34 395.290039062 c 0
 34 519.459960938 135.010742188 606.459960938 259.169921875 606.459960938 c 2
 335.280273438 606.459960938 l 2
 335.379882812 606.459960938 335.541015625 606.459960938 335.640625 606.459960938 c 0
 369.526367188 606.459960938 422.340820312 595.708007812 453.530273438 582.459960938 c 0
 516.33203125 555.776367188 589.16796875 483.241210938 616.110351562 420.549804688 c 0
EndSplineSet
EndChar

StartChar: uni05E5
Encoding: 245 1509 21
Width: 711
VWidth: 0
Flags: HW
LayerCount: 2
Fore
SplineSet
592.580078125 -152.700195312 m 1
 419.599609375 -152.700195312 l 1
 34 600 l 1
 207 600 l 1
 373.830078125 274.3203125 l 1
 451.66015625 370.75 503.01953125 541.830078125 518.91015625 600 c 1
 677.240234375 600 l 1
 665.870117188 532.26953125 616.549804688 306.129882812 445.0703125 134.639648438 c 1
 592.580078125 -152.700195312 l 1
EndSplineSet
EndChar

StartChar: uni05E6
Encoding: 246 1510 22
Width: 714
VWidth: 0
Flags: HW
LayerCount: 2
Fore
SplineSet
675.680664062 584.759765625 m 2
 649.450195312 506.509765625 619.0703125 436 585.379882812 375.240234375 c 0
 567.678710938 343.068359375 535.014648438 293.434570312 512.470703125 264.450195312 c 1
 616.650390625 140.940429688 l 1
 619.120117188 0 l 1
 72.740234375 0 l 1
 72.740234375 154 l 1
 413.370117188 154 l 1
 34 600 l 1
 229.41015625 600 l 1
 419.020507812 375.23046875 l 1
 459.220703125 435.219726562 494.100585938 509.219726562 525.100585938 600 c 1
 680.790039062 600 l 1
 675.680664062 584.759765625 l 2
EndSplineSet
EndChar

StartChar: uni05E7
Encoding: 247 1511 23
Width: 679
VWidth: 0
Flags: HW
LayerCount: 2
Fore
SplineSet
314.25 0 m 1
 475.700195312 446 l 1
 34 446 l 1
 34 600 l 1
 645.51953125 600 l 1
 645.51953125 462.6796875 l 1
 478.029296875 0 l 1
 314.25 0 l 1
50 -152.700195312 m 1
 50 327 l 1
 204 327 l 1
 204 -152.700195312 l 1
 50 -152.700195312 l 1
EndSplineSet
EndChar

StartChar: uni05E8
Encoding: 248 1512 24
Width: 591
VWidth: 0
Flags: HW
LayerCount: 2
Fore
SplineSet
532.9296875 420.629882812 m 0
 546.271484375 389.500976562 557.099609375 336.749023438 557.099609375 302.880859375 c 0
 557.099609375 302.767578125 557.099609375 302.583007812 557.099609375 302.469726562 c 2
 557.099609375 0 l 1
 403.099609375 0 l 1
 403.099609375 301.549804688 l 2
 403.099609375 384.8203125 335.359375 452.549804688 252.099609375 452.549804688 c 0
 222.209960938 452.549804688 144.099609375 452.150390625 64.4794921875 448.549804688 c 2
 45.099609375 447.6796875 l 1
 34 593.889648438 l 1
 53.599609375 595.690429688 l 2
 134.719726562 603.150390625 213.359375 606.540039062 252.099609375 606.540039062 c 0
 252.208984375 606.540039062 252.385742188 606.540039062 252.494140625 606.540039062 c 0
 286.37109375 606.540039062 339.170898438 595.788085938 370.349609375 582.540039062 c 0
 433.157226562 555.86328125 505.993164062 483.327148438 532.9296875 420.629882812 c 0
EndSplineSet
EndChar

StartChar: uni05E9
Encoding: 249 1513 25
Width: 775
VWidth: 0
Flags: HW
LayerCount: 2
Fore
SplineSet
587.759765625 600 m 1
 741.759765625 600 l 1
 741.759765625 304.0703125 l 2
 741.759765625 303.958984375 741.759765625 303.778320312 741.759765625 303.666992188 c 0
 741.759765625 269.796875 730.931640625 217.041992188 717.58984375 185.91015625 c 0
 690.653320312 123.212890625 617.817382812 50.6767578125 555.009765625 24 c 0
 523.829101562 10.751953125 471.02734375 0 437.1484375 0 c 0
 437.041015625 0 436.8671875 0 436.759765625 0 c 2
 34 0 l 1
 34 600 l 1
 188 600 l 1
 188 154 l 1
 436.759765625 154 l 2
 520.01953125 154 587.759765625 221.740234375 587.759765625 305 c 2
 587.759765625 600 l 1
333.280273438 600 m 1
 487.330078125 600 l 1
 485.969726562 522.440429688 476.5703125 451.6796875 458.709960938 384.290039062 c 0
 448.322265625 345.163085938 425.873046875 283.692382812 408.599609375 247.080078125 c 1
 275.76953125 309.169921875 l 1
 305.049804688 386.549804688 330.6796875 480.290039062 333.280273438 600 c 1
EndSplineSet
EndChar

StartChar: uni05EA
Encoding: 250 1514 26
Width: 795
VWidth: 0
Flags: HW
LayerCount: 2
Fore
SplineSet
737.740234375 420.629882812 m 0
 751.092773438 389.489257812 761.9296875 336.716796875 761.9296875 302.834960938 c 0
 761.9296875 302.731445312 761.9296875 302.563476562 761.9296875 302.459960938 c 2
 761.9296875 -6.5400390625 l 1
 607.9296875 -6.5400390625 l 1
 607.9296875 301.540039062 l 2
 607.9296875 384.809570312 540.200195312 452.540039062 456.9296875 452.540039062 c 0
 447.6796875 452.540039062 402.849609375 452.490234375 348.419921875 451.599609375 c 1
 348.419921875 202.690429688 l 2
 348.419921875 159.0703125 340.200195312 121.360351562 324.01953125 90.6396484375 c 0
 312.045898438 67.654296875 284.26953125 38.2119140625 262.01953125 24.919921875 c 0
 220.5703125 -0.080078125 173.0703125 -5.6796875 138.849609375 -5.6796875 c 0
 137.099609375 -5.6796875 135.379882812 -5.6796875 133.700195312 -5.6796875 c 0
 95.169921875 -5.0498046875 61.2998046875 2.509765625 47.759765625 9.650390625 c 2
 34 16.91015625 l 1
 66.4501953125 151.530273438 l 1
 86.669921875 145.530273438 l 2
 98.4697265625 142.01953125 119.1796875 137.450195312 128.299804688 138.280273438 c 2
 129.200195312 138.360351562 l 1
 130.099609375 138.360351562 l 2
 165.56640625 138.404296875 194.385742188 167.223632812 194.4296875 202.690429688 c 2
 194.4296875 446.459960938 l 1
 178.979492188 445.51953125 165.509765625 444.490234375 154.219726562 443.370117188 c 2
 135.76953125 441.540039062 l 1
 110.76953125 582.900390625 l 1
 130.400390625 586.4296875 l 2
 208.719726562 600.540039062 405.209960938 606.540039062 456.91015625 606.540039062 c 0
 457.021484375 606.540039062 457.201171875 606.540039062 457.3125 606.540039062 c 0
 491.1875 606.540039062 543.983398438 595.788085938 575.16015625 582.540039062 c 0
 637.967773438 555.86328125 710.803710938 483.327148438 737.740234375 420.629882812 c 0
EndSplineSet
EndChar

StartChar: a
Encoding: 97 97 28
Width: 643
VWidth: 0
Flags: HW
LayerCount: 2
Fore
SplineSet
492.549804688 600 m 1
 607.8203125 600 l 1
 607.8203125 0 l 1
 492.549804688 0 l 1
 474.459960938 50.5498046875 l 1
 427.280273438 14.75 370.479492188 -4.7001953125 311.919921875 -4.7001953125 c 0
 311.84375 -4.7001953125 311.719726562 -4.7001953125 311.643554688 -4.7001953125 c 0
 280.809570312 -4.7001953125 232.8984375 5.4248046875 204.700195312 17.900390625 c 0
 177.15625 30.0537109375 137.8671875 57.529296875 117 79.23046875 c 0
 64.759765625 133.240234375 36 204.66015625 36 280.330078125 c 2
 36 319.669921875 l 2
 36 395.33984375 64.7802734375 466.76953125 117 520.76953125 c 0
 137.8671875 542.470703125 177.15625 569.946289062 204.700195312 582.099609375 c 0
 232.8984375 594.575195312 280.809570312 604.700195312 311.643554688 604.700195312 c 0
 311.708984375 604.700195312 311.814453125 604.700195312 311.879882812 604.700195312 c 0
 370.419921875 604.700195312 427.240234375 585.25 474.419921875 549.450195312 c 1
 492.549804688 600 l 1
321.919921875 138.459960938 m 0
 400.629882812 138.459960938 464.66015625 202.490234375 464.66015625 281.200195312 c 2
 464.66015625 318.799804688 l 2
 464.66015625 397.540039062 400.66015625 461.540039062 321.919921875 461.540039062 c 0
 243.1796875 461.540039062 179.1796875 397.509765625 179.1796875 318.799804688 c 2
 179.1796875 281.200195312 l 2
 179.1796875 202.459960938 243.209960938 138.459960938 321.919921875 138.459960938 c 0
EndSplineSet
EndChar

StartChar: b
Encoding: 98 98 29
Width: 643
VWidth: 0
Flags: HW
LayerCount: 2
Fore
SplineSet
526.8203125 520.76953125 m 0
 579.040039062 466.759765625 607.80078125 395.349609375 607.8203125 319.669921875 c 2
 607.8203125 280.330078125 l 2
 607.8203125 204.66015625 579.040039062 133.23046875 526.8203125 79.23046875 c 0
 505.953125 57.529296875 466.6640625 30.0537109375 439.120117188 17.900390625 c 0
 410.921875 5.4248046875 363.010742188 -4.7001953125 332.176757812 -4.7001953125 c 0
 332.111328125 -4.7001953125 332.005859375 -4.7001953125 331.940429688 -4.7001953125 c 0
 273.400390625 -4.7001953125 216.580078125 14.75 169.400390625 50.5498046875 c 1
 151.270507812 0 l 1
 36 0 l 1
 36 800 l 1
 179.120117188 800 l 1
 179.120117188 556.530273438 l 1
 217.125 583.02734375 285.5703125 604.607421875 331.900390625 604.700195312 c 0
 331.9765625 604.700195312 332.100585938 604.700195312 332.176757812 604.700195312 c 0
 363.010742188 604.700195312 410.921875 594.575195312 439.120117188 582.099609375 c 0
 466.6640625 569.946289062 505.953125 542.470703125 526.8203125 520.76953125 c 0
179.16015625 318.76953125 m 2
 179.16015625 281.169921875 l 2
 179.16015625 202.4296875 243.16015625 138.4296875 321.900390625 138.4296875 c 0
 400.640625 138.4296875 464.640625 202.459960938 464.640625 281.169921875 c 2
 464.640625 318.76953125 l 2
 464.640625 397.509765625 400.640625 461.509765625 321.900390625 461.509765625 c 0
 243.16015625 461.509765625 179.16015625 397.48046875 179.16015625 318.76953125 c 2
EndSplineSet
EndChar

StartChar: c
Encoding: 99 99 30
Width: 594
VWidth: 0
Flags: HW
LayerCount: 2
Fore
SplineSet
442.370117188 204.940429688 m 2
 454.419921875 223.849609375 l 1
 558.510742188 119.8203125 l 1
 548.890625 107.299804688 l 2
 501.44921875 45.55859375 399.752929688 -4.6171875 321.890625 -4.7001953125 c 0
 321.79296875 -4.7001953125 321.635742188 -4.7001953125 321.5390625 -4.7001953125 c 0
 289.779296875 -4.7001953125 240.280273438 5.3798828125 211.05078125 17.7998046875 c 0
 152.171875 42.802734375 83.896484375 110.795898438 58.650390625 169.5703125 c 0
 46.1474609375 198.75390625 36 248.20703125 36 279.956054688 c 0
 36 280.059570312 36 280.2265625 36 280.330078125 c 2
 36 319.669921875 l 2
 36 319.7734375 36 319.940429688 36 320.043945312 c 0
 36 351.79296875 46.1474609375 401.24609375 58.650390625 430.4296875 c 0
 83.896484375 489.204101562 152.171875 557.197265625 211.05078125 582.200195312 c 0
 240.263671875 594.603515625 289.73046875 604.669921875 321.467773438 604.669921875 c 0
 321.559570312 604.669921875 321.708984375 604.669921875 321.80078125 604.669921875 c 0
 399.663085938 604.586914062 501.359375 554.411132812 548.80078125 492.669921875 c 2
 558.419921875 480.150390625 l 1
 454.370117188 376.150390625 l 1
 442.370117188 395.059570312 l 2
 415.890625 436.690429688 370.810546875 461.540039062 321.890625 461.540039062 c 0
 243.150390625 461.540039062 179.150390625 397.509765625 179.150390625 318.799804688 c 2
 179.150390625 281.200195312 l 2
 179.150390625 202.459960938 243.180664062 138.459960938 321.890625 138.459960938 c 0
 370.810546875 138.459960938 415.850585938 163.309570312 442.370117188 204.940429688 c 2
EndSplineSet
EndChar

StartChar: d
Encoding: 100 100 31
Width: 643
VWidth: 0
Flags: HW
LayerCount: 2
Fore
SplineSet
464.620117188 800 m 1
 607.780273438 800 l 1
 607.780273438 0 l 1
 492.509765625 0 l 1
 474.419921875 50.5498046875 l 1
 427.240234375 14.75 370.439453125 -4.7001953125 311.879882812 -4.7001953125 c 0
 311.814453125 -4.7001953125 311.708984375 -4.7001953125 311.643554688 -4.7001953125 c 0
 280.809570312 -4.7001953125 232.8984375 5.4248046875 204.700195312 17.900390625 c 0
 177.15625 30.0537109375 137.8671875 57.529296875 117 79.23046875 c 0
 64.759765625 133.240234375 36 204.66015625 36 280.330078125 c 2
 36 319.669921875 l 2
 36 395.349609375 64.7802734375 466.76953125 117 520.76953125 c 0
 137.8671875 542.470703125 177.15625 569.946289062 204.700195312 582.099609375 c 0
 232.8984375 594.575195312 280.809570312 604.700195312 311.643554688 604.700195312 c 0
 311.708984375 604.700195312 311.814453125 604.700195312 311.879882812 604.700195312 c 0
 358.197265625 604.600585938 426.625 583.020507812 464.620117188 556.530273438 c 1
 464.620117188 800 l 1
464.620117188 318.799804688 m 2
 464.620117188 397.509765625 400.620117188 461.540039062 321.879882812 461.540039062 c 0
 243.139648438 461.540039062 179.139648438 397.509765625 179.139648438 318.799804688 c 2
 179.139648438 281.200195312 l 2
 179.139648438 202.459960938 243.139648438 138.459960938 321.879882812 138.459960938 c 0
 400.620117188 138.459960938 464.620117188 202.490234375 464.620117188 281.200195312 c 2
 464.620117188 318.799804688 l 2
EndSplineSet
EndChar

StartChar: e
Encoding: 101 101 32
Width: 643
VWidth: 0
Flags: HW
LayerCount: 2
Fore
SplineSet
607.80078125 319.669921875 m 2
 607.80078125 238.08984375 l 1
 185.900390625 238.08984375 l 1
 204.5 180.040039062 259.640625 138.459960938 321.900390625 138.459960938 c 0
 356.0234375 138.575195312 402.642578125 158.88671875 425.959960938 183.799804688 c 2
 431.30078125 189.490234375 l 1
 594.220703125 189.490234375 l 1
 582.709960938 164.0703125 l 2
 536.30078125 61.5400390625 433.900390625 -4.7001953125 321.900390625 -4.7001953125 c 0
 321.803710938 -4.7001953125 321.645507812 -4.7001953125 321.548828125 -4.7001953125 c 0
 289.7890625 -4.7001953125 240.291015625 5.3798828125 211.060546875 17.7998046875 c 0
 152.18359375 42.8037109375 83.908203125 110.796875 58.66015625 169.5703125 c 0
 46.15234375 198.749023438 36 248.197265625 36 279.9453125 c 0
 36 280.05078125 36 280.223632812 36 280.330078125 c 2
 36 319.669921875 l 2
 36 319.776367188 36 319.94921875 36 320.0546875 c 0
 36 351.802734375 46.15234375 401.250976562 58.66015625 430.4296875 c 0
 83.908203125 489.203125 152.18359375 557.196289062 211.060546875 582.200195312 c 0
 240.391601562 594.620117188 290.047851562 604.700195312 321.900390625 604.700195312 c 0
 353.752929688 604.700195312 403.409179688 594.620117188 432.740234375 582.200195312 c 0
 491.6171875 557.196289062 559.892578125 489.203125 585.140625 430.4296875 c 0
 597.6484375 401.250976562 607.80078125 351.802734375 607.80078125 320.0546875 c 0
 607.80078125 319.94921875 607.80078125 319.776367188 607.80078125 319.669921875 c 2
321.900390625 461.540039062 m 0
 258.040039062 461.540039062 202.390625 418.559570312 184.900390625 358.690429688 c 1
 458.900390625 358.690429688 l 1
 441.41015625 418.540039062 385.760742188 461.540039062 321.900390625 461.540039062 c 0
EndSplineSet
EndChar

StartChar: f
Encoding: 102 102 33
Width: 456
VWidth: 0
Flags: HW
LayerCount: 2
Fore
SplineSet
402.560546875 609.360351562 m 5
 420.169921875 466.200195312 l 5
 292.350585938 466.200195312 l 5
 292.350585938 0 l 5
 149.190429688 0 l 5
 149.190429688 466.200195312 l 5
 36 466.200195312 l 5
 36 609.360351562 l 5
 149.190429688 609.360351562 l 5
 149.190429688 698.1796875 l 6
 149.190429688 810.900390625 240.91015625 902.610351562 353.620117188 902.610351562 c 6
 417.8203125 902.610351562 l 5
 417.8203125 759.450195312 l 5
 353.620117188 759.450195312 l 6
 319.842773438 759.40625 292.39453125 731.95703125 292.350585938 698.1796875 c 6
 292.350585938 609.360351562 l 5
 402.560546875 609.360351562 l 5
EndSplineSet
EndChar

StartChar: g
Encoding: 103 103 34
Width: 643
VWidth: 0
Flags: HW
LayerCount: 2
Fore
SplineSet
492.549804688 600 m 1
 607.8203125 600 l 1
 607.8203125 23.98046875 l 2
 607.8203125 -115.780273438 465.41015625 -249.120117188 321.919921875 -249.120117188 c 0
 244.059570312 -249.03125 142.364257812 -198.85546875 94.919921875 -137.120117188 c 2
 85.419921875 -124.599609375 l 1
 189.419921875 -20.5498046875 l 1
 201.479492188 -39.4599609375 l 2
 227.959960938 -81.08984375 273.040039062 -105.940429688 321.959960938 -105.940429688 c 0
 400.700195312 -105.940429688 464.700195312 -41.91015625 464.700195312 36.7998046875 c 2
 464.700195312 43.4697265625 l 1
 426.6953125 16.97265625 358.25 -4.607421875 311.919921875 -4.7001953125 c 0
 311.84375 -4.7001953125 311.719726562 -4.7001953125 311.643554688 -4.7001953125 c 0
 280.809570312 -4.7001953125 232.8984375 5.4248046875 204.700195312 17.900390625 c 0
 177.15625 30.0537109375 137.8671875 57.529296875 117 79.23046875 c 0
 64.759765625 133.240234375 36 204.66015625 36 280.330078125 c 2
 36 319.669921875 l 2
 36 395.349609375 64.7802734375 466.76953125 117 520.76953125 c 0
 137.8671875 542.470703125 177.15625 569.946289062 204.700195312 582.099609375 c 0
 232.8984375 594.575195312 280.809570312 604.700195312 311.643554688 604.700195312 c 0
 311.708984375 604.700195312 311.814453125 604.700195312 311.879882812 604.700195312 c 0
 370.419921875 604.700195312 427.240234375 585.25 474.419921875 549.450195312 c 1
 492.549804688 600 l 1
464.66015625 318.799804688 m 2
 464.66015625 397.509765625 400.66015625 461.540039062 321.919921875 461.540039062 c 0
 243.1796875 461.540039062 179.1796875 397.509765625 179.1796875 318.799804688 c 2
 179.1796875 281.200195312 l 2
 179.1796875 202.459960938 243.1796875 138.459960938 321.919921875 138.459960938 c 0
 400.66015625 138.459960938 464.66015625 202.490234375 464.66015625 281.200195312 c 2
 464.66015625 318.799804688 l 2
EndSplineSet
EndChar

StartChar: h
Encoding: 104 104 35
Width: 622
VWidth: 0
Flags: HW
LayerCount: 2
Fore
SplineSet
538.51953125 499.360351562 m 0
 570.149414062 452.700195312 586.1796875 395.580078125 586.1796875 329.610351562 c 2
 586.1796875 0 l 1
 443.01953125 0 l 1
 443.01953125 329.610351562 l 2
 443.01953125 402.360351562 383.830078125 461.540039062 311.08984375 461.540039062 c 0
 238.349609375 461.540039062 179.16015625 402.360351562 179.16015625 329.610351562 c 2
 179.16015625 0 l 1
 36 0 l 1
 36 800 l 1
 179.16015625 800 l 1
 179.16015625 553.08984375 l 1
 202.892578125 571.951171875 246.133789062 592.765625 275.6796875 599.549804688 c 0
 291.479492188 603.204101562 317.462890625 606.169921875 333.6796875 606.169921875 c 0
 358.89453125 606.169921875 398.57421875 599.127929688 422.25 590.450195312 c 0
 462.444335938 575.653320312 514.533203125 534.844726562 538.51953125 499.360351562 c 0
EndSplineSet
EndChar

StartChar: i
Encoding: 105 105 36
Width: 220
VWidth: 0
Flags: HW
LayerCount: 2
Fore
SplineSet
36 725.599609375 m 0
 36 766.690429688 69.310546875 800 110.400390625 800 c 0
 151.490234375 800 184.80078125 766.690429688 184.80078125 725.599609375 c 0
 184.80078125 684.509765625 151.490234375 651.200195312 110.400390625 651.200195312 c 0
 69.310546875 651.200195312 36 684.509765625 36 725.599609375 c 0
38.2099609375 0 m 1
 38.2099609375 600 l 1
 182.590820312 600 l 1
 182.590820312 0 l 1
 38.2099609375 0 l 1
EndSplineSet
EndChar

StartChar: j
Encoding: 106 106 37
Width: 337
VWidth: 0
Flags: HW
LayerCount: 2
Fore
SplineSet
152.76953125 725.599609375 m 0
 152.76953125 766.690429688 186.080078125 800 227.169921875 800 c 0
 268.259765625 800 301.5703125 766.690429688 301.5703125 725.599609375 c 0
 301.5703125 684.509765625 268.259765625 651.200195312 227.169921875 651.200195312 c 0
 186.080078125 651.200195312 152.76953125 684.509765625 152.76953125 725.599609375 c 0
156.169921875 600 m 1
 299.360351562 600 l 1
 299.360351562 48.7197265625 l 2
 299.360351562 -10.400390625 277.83984375 -66.76953125 238.780273438 -110.01953125 c 0
 200.129882812 -152.860351562 146.479492188 -180.459960938 87.7294921875 -187.860351562 c 2
 72.4697265625 -189.780273438 l 1
 36 -63.9599609375 l 1
 54.9296875 -59.9599609375 l 2
 70.4755859375 -56.0205078125 93.9951171875 -45.716796875 107.4296875 -36.9599609375 c 0
 139.76953125 -15.509765625 156.169921875 13.3203125 156.169921875 48.7197265625 c 2
 156.169921875 600 l 1
EndSplineSet
EndChar

StartChar: k
Encoding: 107 107 38
Width: 608
VWidth: 0
Flags: HW
LayerCount: 2
Fore
SplineSet
572.790039062 600 m 1
 328.229492188 320.700195312 l 1
 569.139648438 0 l 1
 404.729492188 0 l 1
 240.580078125 220.610351562 l 1
 179.16015625 150.459960938 l 1
 179.16015625 0 l 1
 36 0 l 1
 36 800 l 1
 179.16015625 800 l 1
 179.16015625 347.790039062 l 1
 400 600 l 1
 572.790039062 600 l 1
EndSplineSet
EndChar

StartChar: l
Encoding: 108 108 39
Width: 216
VWidth: 0
Flags: HW
LayerCount: 2
Fore
SplineSet
36 0 m 1
 36 800 l 1
 180.380859375 800 l 1
 180.380859375 0 l 1
 36 0 l 1
EndSplineSet
EndChar

StartChar: m
Encoding: 109 109 40
Width: 1029
VWidth: 0
Flags: HW
LayerCount: 2
Fore
SplineSet
936.08984375 512.370117188 m 0
 973.44921875 464.33984375 993.19921875 401.150390625 993.19921875 329.610351562 c 2
 993.19921875 0 l 1
 850.040039062 0 l 1
 850.040039062 329.650390625 l 2
 850.040039062 402.400390625 790.739257812 461.580078125 718.109375 461.580078125 c 0
 645.479492188 461.580078125 586.369140625 402.58984375 586.1796875 330 c 2
 586.1796875 0 l 1
 443.01953125 0 l 1
 443.01953125 329.610351562 l 2
 443.009765625 402.370117188 383.830078125 461.540039062 311.08984375 461.540039062 c 0
 238.349609375 461.540039062 179.159179688 402.360351562 179.159179688 329.610351562 c 2
 179.159179688 0 l 1
 36 0 l 1
 36 600 l 1
 151.779296875 600 l 1
 169.299804688 544.73046875 l 1
 221.009765625 590.849609375 291.599609375 612.950195312 363.809570312 604.450195312 c 0
 396.329101562 600.6796875 444.923828125 583.024414062 472.279296875 565.040039062 c 0
 493.845703125 550.790039062 523.176757812 521.899414062 537.75 500.549804688 c 1
 559.784179688 533.265625 607.271484375 571.995117188 643.75 587 c 0
 669.549804688 597.608398438 713.12890625 606.217773438 741.024414062 606.217773438 c 0
 757.8203125 606.217773438 784.702148438 603.01953125 801.029296875 599.080078125 c 0
 855.51953125 585.879882812 902.229492188 555.900390625 936.08984375 512.370117188 c 0
EndSplineSet
EndChar

StartChar: n
Encoding: 110 110 41
Width: 622
VWidth: 0
Flags: HW
LayerCount: 2
Fore
SplineSet
538.51953125 499.360351562 m 0
 570.139648438 452.700195312 586.1796875 395.580078125 586.1796875 329.610351562 c 2
 586.1796875 0 l 1
 443.01953125 0 l 1
 443.01953125 329.610351562 l 2
 443.01953125 402.360351562 383.83984375 461.540039062 311.08984375 461.540039062 c 0
 238.33984375 461.540039062 179.16015625 402.360351562 179.16015625 329.610351562 c 2
 179.16015625 0 l 1
 36 0 l 1
 36 600 l 1
 151.780273438 600 l 1
 169.290039062 544.75 l 1
 199.120117188 571.389648438 235.379882812 590.129882812 275.6796875 599.549804688 c 0
 291.479492188 603.204101562 317.462890625 606.169921875 333.6796875 606.169921875 c 0
 358.89453125 606.169921875 398.57421875 599.127929688 422.25 590.450195312 c 0
 462.444335938 575.653320312 514.533203125 534.845703125 538.51953125 499.360351562 c 0
EndSplineSet
EndChar

StartChar: o
Encoding: 111 111 42
Width: 643
VWidth: 0
Flags: HW
LayerCount: 2
Fore
SplineSet
585.150390625 430.4296875 m 0
 597.653320312 401.24609375 607.80078125 351.79296875 607.80078125 320.043945312 c 0
 607.80078125 319.940429688 607.80078125 319.7734375 607.80078125 319.669921875 c 2
 607.80078125 280.330078125 l 2
 607.80078125 280.2265625 607.80078125 280.059570312 607.80078125 279.956054688 c 0
 607.80078125 248.20703125 597.653320312 198.75390625 585.150390625 169.5703125 c 0
 559.895507812 110.799804688 491.616210938 42.806640625 432.740234375 17.7998046875 c 0
 403.409179688 5.3798828125 353.752929688 -4.7001953125 321.900390625 -4.7001953125 c 0
 290.047851562 -4.7001953125 240.391601562 5.3798828125 211.060546875 17.7998046875 c 0
 152.184570312 42.806640625 83.9052734375 110.799804688 58.650390625 169.5703125 c 0
 46.1474609375 198.75390625 36 248.20703125 36 279.956054688 c 0
 36 280.059570312 36 280.2265625 36 280.330078125 c 2
 36 319.669921875 l 2
 36 319.7734375 36 319.940429688 36 320.043945312 c 0
 36 351.79296875 46.1474609375 401.24609375 58.650390625 430.4296875 c 0
 83.9052734375 489.200195312 152.184570312 557.193359375 211.060546875 582.200195312 c 0
 240.391601562 594.620117188 290.047851562 604.700195312 321.900390625 604.700195312 c 0
 353.752929688 604.700195312 403.409179688 594.620117188 432.740234375 582.200195312 c 0
 491.616210938 557.193359375 559.895507812 489.200195312 585.150390625 430.4296875 c 0
321.900390625 138.459960938 m 0
 400.610351562 138.459960938 464.640625 202.490234375 464.640625 281.200195312 c 2
 464.640625 318.799804688 l 2
 464.640625 397.540039062 400.640625 461.540039062 321.900390625 461.540039062 c 0
 243.16015625 461.540039062 179.16015625 397.509765625 179.16015625 318.799804688 c 2
 179.16015625 281.200195312 l 2
 179.16015625 202.459960938 243.190429688 138.459960938 321.900390625 138.459960938 c 0
EndSplineSet
EndChar

StartChar: p
Encoding: 112 112 43
Width: 643
VWidth: 0
Flags: HW
LayerCount: 2
Fore
SplineSet
526.8203125 522.240234375 m 0
 579.040039062 468.23046875 607.80078125 396.809570312 607.780273438 321.139648438 c 2
 607.780273438 281.790039062 l 2
 607.780273438 206.120117188 579 134.690429688 526.780273438 80.6904296875 c 0
 505.911132812 58.9921875 466.622070312 31.5166015625 439.080078125 19.3603515625 c 0
 410.877929688 6.890625 362.961914062 -3.23046875 332.125 -3.23046875 c 0
 332.063476562 -3.23046875 331.962890625 -3.23046875 331.900390625 -3.23046875 c 0
 285.581054688 -3.1337890625 217.154296875 18.4462890625 179.16015625 44.9404296875 c 1
 179.16015625 -200 l 1
 36 -200 l 1
 36 601.469726562 l 1
 151.23046875 601.469726562 l 1
 169.360351562 550.919921875 l 1
 216.540039062 586.709960938 273.340820312 606.169921875 331.900390625 606.169921875 c 0
 331.9765625 606.169921875 332.100585938 606.169921875 332.176757812 606.169921875 c 0
 363.010742188 606.169921875 410.921875 596.044921875 439.120117188 583.5703125 c 0
 466.6640625 571.416992188 505.953125 543.940429688 526.8203125 522.240234375 c 0
464.640625 320.240234375 m 1
 464.640625 320.26953125 l 2
 464.640625 399 400.610351562 463 321.900390625 463 c 0
 243.190429688 463 179.16015625 399 179.16015625 320.26953125 c 2
 179.16015625 282.669921875 l 2
 179.16015625 204 243.16015625 139.900390625 321.900390625 139.900390625 c 0
 400.640625 139.900390625 464.640625 203.9296875 464.640625 282.639648438 c 2
 464.640625 320.240234375 l 1
EndSplineSet
EndChar

StartChar: q
Encoding: 113 113 44
Width: 643
VWidth: 0
Flags: HW
LayerCount: 2
Fore
SplineSet
36 321.139648438 m 2
 36 396.809570312 64.7607421875 468.23046875 116.98046875 522.240234375 c 0
 137.84765625 543.940429688 177.13671875 571.416992188 204.680664062 583.5703125 c 0
 232.87890625 596.044921875 280.790039062 606.169921875 311.624023438 606.169921875 c 0
 311.689453125 606.169921875 311.794921875 606.169921875 311.860351562 606.169921875 c 0
 370.400390625 606.169921875 427.220703125 586.709960938 474.400390625 550.919921875 c 1
 492.530273438 601.469726562 l 1
 607.80078125 601.469726562 l 1
 607.80078125 -200 l 1
 464.680664062 -200 l 1
 464.680664062 44.9404296875 l 1
 426.676757812 18.439453125 358.231445312 -3.1416015625 311.900390625 -3.23046875 c 0
 311.833007812 -3.23046875 311.72265625 -3.23046875 311.655273438 -3.23046875 c 0
 280.819335938 -3.23046875 232.903320312 6.890625 204.700195312 19.3603515625 c 0
 177.159179688 31.5166015625 137.869140625 58.9921875 117 80.6904296875 c 0
 64.7607421875 134.700195312 36 206.120117188 36 281.790039062 c 2
 36 321.139648438 l 2
321.900390625 463 m 0
 243.190429688 463 179.16015625 399 179.16015625 320.26953125 c 2
 179.16015625 282.669921875 l 2
 179.16015625 204 243.16015625 139.919921875 321.900390625 139.919921875 c 0
 400.640625 139.919921875 464.640625 203.950195312 464.640625 282.66015625 c 2
 464.640625 320.259765625 l 2
 464.640625 399 400.610351562 463 321.900390625 463 c 0
EndSplineSet
EndChar

StartChar: r
Encoding: 114 114 45
Width: 437
VWidth: 0
Flags: HW
LayerCount: 2
Fore
SplineSet
331.940429688 606.580078125 m 2
 401 606.580078125 l 1
 401 463.419921875 l 1
 321.900390625 463.419921875 l 2
 243.16015625 463.419921875 179.16015625 399.389648438 179.16015625 320.6796875 c 2
 179.16015625 0 l 1
 36 0 l 1
 36 600 l 1
 151.26953125 600 l 1
 169.400390625 551.330078125 l 1
 216.580078125 587.129882812 273.379882812 606.580078125 331.940429688 606.580078125 c 2
EndSplineSet
EndChar

StartChar: s
Encoding: 115 115 46
Width: 591
VWidth: 0
Flags: HW
LayerCount: 2
Fore
SplineSet
534.666992188 263.08984375 m 0
 550.13671875 237.469726562 556.997070312 206.650390625 554.987304688 171.509765625 c 2
 554.987304688 170.8203125 l 1
 554.897460938 170.139648438 l 2
 554.63671875 168.1796875 548.037109375 121.41015625 510.037109375 76.5595703125 c 0
 487.787109375 50.330078125 459.3671875 30.0595703125 425.567382812 16.330078125 c 0
 390.737304688 2.1796875 350.126953125 -4.9501953125 304.567382812 -4.9501953125 c 0
 296.067382812 -4.9501953125 287.401367188 -4.7001953125 278.567382812 -4.2001953125 c 0
 187.817382812 0.900390625 121.3671875 27.259765625 81.0771484375 74.1103515625 c 0
 36.8466796875 125.599609375 41.70703125 182.58984375 41.9365234375 185 c 2
 43.306640625 199.709960938 l 1
 172.306640625 213.33984375 l 1
 172.947265625 194.58984375 l 2
 173.346679688 190.5 181.086914062 131.48046875 285.8671875 125.58984375 c 0
 331.846679688 123 367.357421875 132.559570312 388.567382812 153.200195312 c 0
 400.966796875 165.280273438 404.836914062 177.599609375 405.647460938 180.66015625 c 0
 405.846679688 186.879882812 404.45703125 198.129882812 377.27734375 209.389648438 c 0
 353.827148438 219.110351562 319.327148438 225.5 282.827148438 232.259765625 c 0
 228.126953125 242.400390625 166.067382812 253.889648438 118.126953125 280.549804688 c 0
 90.63671875 295.830078125 70.5673828125 314.309570312 56.77734375 337.030273438 c 0
 41.2470703125 362.639648438 34.3369140625 393.41015625 36.3369140625 428.490234375 c 2
 36.3369140625 429.1796875 l 1
 36.4267578125 429.860351562 l 2
 36.6865234375 431.8203125 43.287109375 478.58984375 81.287109375 523.440429688 c 0
 103.52734375 549.669921875 131.947265625 569.940429688 165.756835938 583.669921875 c 0
 207.107421875 600.450195312 256.567382812 607.360351562 312.756835938 604.200195312 c 0
 403.516601562 599.099609375 469.966796875 572.740234375 510.327148438 525.8203125 c 0
 554.567382812 474.330078125 549.697265625 417.33984375 549.4765625 414.9296875 c 2
 548.077148438 400.290039062 l 1
 419.077148438 386.66015625 l 1
 418.436523438 405.41015625 l 2
 418.037109375 409.509765625 410.287109375 468.51953125 305.516601562 474.41015625 c 0
 205.166992188 480.049804688 187.766601562 427.3203125 185.766601562 419.3203125 c 0
 185.567382812 413.030273438 186.95703125 401.6796875 214.166992188 390.419921875 c 0
 237.666992188 380.700195312 272.186523438 374.360351562 308.7265625 367.650390625 c 0
 363.436523438 357.580078125 425.447265625 346.209960938 473.3671875 319.580078125 c 0
 500.846679688 304.3203125 520.897460938 285.83984375 534.666992188 263.08984375 c 0
EndSplineSet
EndChar

StartChar: t
Encoding: 116 116 47
Width: 456
VWidth: 0
Flags: HW
LayerCount: 2
Fore
SplineSet
292.379882812 204.4296875 m 2
 292.423828125 170.669921875 319.859375 143.220703125 353.620117188 143.16015625 c 2
 417.8203125 143.16015625 l 1
 417.8203125 0 l 1
 353.620117188 0 l 2
 240.899414062 0 149.189453125 91.7099609375 149.189453125 204.4296875 c 2
 149.189453125 456.83984375 l 1
 36 456.83984375 l 1
 36 600 l 1
 149.189453125 600 l 1
 149.189453125 800 l 1
 292.379882812 800 l 1
 292.379882812 600 l 1
 402.559570312 600 l 1
 420.169921875 456.83984375 l 1
 292.379882812 456.83984375 l 1
 292.379882812 204.4296875 l 2
EndSplineSet
EndChar

StartChar: u
Encoding: 117 117 48
Width: 622
VWidth: 0
Flags: HW
LayerCount: 2
Fore
SplineSet
443.01953125 600 m 1
 586.1796875 600 l 1
 586.1796875 0 l 1
 470.399414062 0 l 1
 452.889648438 55.25 l 1
 423.059570312 28.6103515625 386.799804688 9.8701171875 346.5 0.4501953125 c 0
 330.701171875 -3.2041015625 304.717773438 -6.169921875 288.500976562 -6.169921875 c 0
 263.28515625 -6.169921875 223.60546875 0.873046875 199.9296875 9.5498046875 c 0
 159.735351562 24.3466796875 107.646484375 65.154296875 83.66015625 100.639648438 c 0
 52 147.309570312 36 204.389648438 36 270.389648438 c 2
 36 600 l 1
 179.16015625 600 l 1
 179.16015625 270.389648438 l 2
 179.16015625 197.639648438 238.33984375 138.459960938 311.08984375 138.459960938 c 0
 383.83984375 138.459960938 443.01953125 197.639648438 443.01953125 270.389648438 c 2
 443.01953125 600 l 1
EndSplineSet
EndChar

StartChar: v
Encoding: 118 118 49
Width: 637
VWidth: 0
Flags: HW
LayerCount: 2
Fore
SplineSet
455.870117188 600 m 1
 601.439453125 600 l 1
 384.939453125 0 l 1
 252.5 0 l 1
 36 600 l 1
 181.569335938 600 l 1
 318.719726562 207.129882812 l 1
 455.870117188 600 l 1
EndSplineSet
EndChar

StartChar: w
Encoding: 119 119 50
Width: 964
VWidth: 0
Flags: HW
LayerCount: 2
Fore
SplineSet
782.950195312 600 m 1
 928.169921875 600 l 1
 728.5 0.48046875 l 1
 595 0.48046875 l 1
 482.080078125 373.26953125 l 1
 369.169921875 0.5302734375 l 1
 235.6796875 -0.0595703125 l 1
 36 600 l 1
 181.209960938 600 l 1
 303.1796875 223.459960938 l 1
 415.0703125 600 l 1
 549.08984375 600 l 1
 660.98046875 223.459960938 l 1
 782.950195312 600 l 1
EndSplineSet
EndChar

StartChar: x
Encoding: 120 120 51
Width: 657
VWidth: 0
Flags: HW
LayerCount: 2
Fore
SplineSet
621.5390625 600 m 1
 415.58984375 300 l 1
 621.5390625 0 l 1
 447.889648438 0 l 1
 328.76953125 173.51953125 l 1
 209.649414062 0 l 1
 36 0 l 1
 241.94921875 300 l 1
 36 600 l 1
 209.649414062 600 l 1
 328.76953125 426.48046875 l 1
 447.889648438 600 l 1
 621.5390625 600 l 1
EndSplineSet
EndChar

StartChar: y
Encoding: 121 121 52
Width: 637
VWidth: 0
Flags: HW
LayerCount: 2
Fore
SplineSet
455.870117188 600 m 1
 601.400390625 600 l 1
 374.900390625 -30.7900390625 l 2
 354.919921875 -86.419921875 315.620117188 -132.209960938 264.240234375 -159.709960938 c 0
 234.969726562 -175.260742188 184.314453125 -187.880859375 151.169921875 -187.880859375 c 0
 150.94921875 -187.880859375 150.590820312 -187.880859375 150.370117188 -187.879882812 c 0
 150.354492188 -187.879882812 150.328125 -187.879882812 150.311523438 -187.879882812 c 0
 135.0625 -187.879882812 110.60546875 -185.192382812 95.720703125 -181.879882812 c 2
 80.720703125 -178.530273438 l 1
 88.9306640625 -47.8603515625 l 1
 108.110351562 -50.4599609375 l 2
 112.724609375 -50.9052734375 120.233398438 -51.2666015625 124.869140625 -51.2666015625 c 0
 136.181640625 -51.2666015625 154.294921875 -49.1396484375 165.299804688 -46.51953125 c 0
 202.990234375 -37.26953125 228.129882812 -15.6796875 240.129882812 17.6396484375 c 2
 243.129882812 26 l 1
 36 600 l 1
 181.5703125 600 l 1
 318.720703125 207.129882812 l 1
 455.870117188 600 l 1
EndSplineSet
EndChar

StartChar: z
Encoding: 122 122 53
Width: 578
VWidth: 0
Flags: HW
LayerCount: 2
Fore
SplineSet
542 600 m 1
 542 467.549804688 l 1
 227.51953125 143.16015625 l 1
 542 143.16015625 l 1
 542 0 l 1
 36 0 l 1
 36 132.450195312 l 1
 350.48046875 456.83984375 l 1
 36 456.83984375 l 1
 36 600 l 1
 542 600 l 1
EndSplineSet
EndChar

StartChar: E
Encoding: 69 69 54
Width: 703
VWidth: 0
Flags: HW
LayerCount: 2
Fore
SplineSet
663.5 655.620117188 m 1
 184.370117188 655.620117188 l 1
 184.370117188 372.190429688 l 1
 525.809570312 372.190429688 l 1
 525.809570312 227.809570312 l 1
 184.370117188 227.809570312 l 1
 184.370117188 145.370117188 l 1
 663.5 145.370117188 l 1
 663.5 1 l 1
 40 1 l 1
 40 800 l 1
 663.5 800 l 1
 663.5 655.620117188 l 1
EndSplineSet
EndChar

StartChar: C
Encoding: 67 67 55
Width: 803
VWidth: 0
Flags: HW
LayerCount: 2
Fore
SplineSet
634.439453125 292.690429688 m 1
 763.099609375 216.549804688 l 1
 703.149414062 86.169921875 570.669921875 -5 418.599609375 -5 c 0
 211.049804688 -5 40 164.809570312 40 372.389648438 c 2
 40 428 l 2
 40 635.51953125 211.049804688 805.330078125 418.599609375 805.330078125 c 0
 570.669921875 805.330078125 703.149414062 714.169921875 763.099609375 583.790039062 c 1
 634.439453125 507.639648438 l 1
 598.75 591.549804688 515.049804688 650.830078125 418.599609375 650.830078125 c 0
 290.19921875 650.830078125 184.379882812 545.76953125 184.379882812 417.370117188 c 2
 184.379882812 382.969726562 l 2
 184.379882812 254.509765625 290.19921875 149.509765625 418.599609375 149.509765625 c 0
 515.049804688 149.509765625 598.75 208.780273438 634.439453125 292.690429688 c 1
EndSplineSet
EndChar

StartChar: D
Encoding: 68 68 56
Width: 801
VWidth: 0
Flags: HW
LayerCount: 2
Fore
SplineSet
40 800 m 1
 386 800 l 2
 593.219726562 800 761.19921875 632 761.19921875 424.799804688 c 2
 761.19921875 376.200195312 l 2
 761.19921875 169 593.219726562 1 386 1 c 2
 40 1 l 1
 40 800 l 1
 40 800 l 1
184.379882812 145.370117188 m 1
 388.51953125 145.370117188 l 2
 514.609375 145.370117188 616.819335938 247.58984375 616.819335938 373.6796875 c 2
 616.819335938 427.3203125 l 2
 616.819335938 553.41015625 514.609375 655.620117188 388.51953125 655.620117188 c 2
 184.379882812 655.620117188 l 1
 184.379882812 145.370117188 l 1
EndSplineSet
EndChar

StartChar: F
Encoding: 70 70 57
Width: 703
VWidth: 0
Flags: HW
LayerCount: 2
Fore
SplineSet
663.5 655.620117188 m 1
 184.370117188 655.620117188 l 1
 184.370117188 372.190429688 l 1
 525.809570312 372.190429688 l 1
 525.809570312 227.809570312 l 1
 184.370117188 227.809570312 l 1
 184.370117188 1 l 1
 40 1 l 1
 40 800 l 1
 663.5 800 l 1
 663.5 655.620117188 l 1
EndSplineSet
EndChar

StartChar: G
Encoding: 71 71 58
Width: 837
VWidth: 0
Flags: HW
LayerCount: 2
Fore
SplineSet
797.19921875 437.870117188 m 1
 797.19921875 372.360351562 l 2
 797.19921875 164.809570312 626.149414062 -5 418.599609375 -5 c 0
 211.049804688 -5 40 164.809570312 40 372.389648438 c 2
 40 428 l 2
 40 635.51953125 211.049804688 805.330078125 418.599609375 805.330078125 c 0
 570.669921875 805.330078125 703.149414062 714.169921875 763.099609375 583.790039062 c 1
 634.44921875 507.639648438 l 1
 598.759765625 591.549804688 515.059570312 650.830078125 418.609375 650.830078125 c 0
 290.209960938 650.830078125 184.389648438 545.76953125 184.389648438 417.370117188 c 2
 184.389648438 382 l 1
 184.389648438 382 l 1
 184.919921875 254 290.51953125 149.509765625 418.599609375 149.5 c 0
 515.349609375 149.5 599.259765625 209.16015625 634.759765625 293.5 c 1
 418.599609375 293.5 l 1
 418.599609375 437.870117188 l 1
 797.19921875 437.870117188 l 1
EndSplineSet
EndChar

StartChar: H
Encoding: 72 72 59
Width: 779
VWidth: 0
Flags: HW
LayerCount: 2
Fore
SplineSet
595.100585938 800 m 1
 739.48046875 800 l 1
 739.48046875 1 l 1
 595.100585938 1 l 1
 595.100585938 227.809570312 l 1
 184.379882812 227.809570312 l 1
 184.379882812 1 l 1
 40 1 l 1
 40 800 l 1
 184.379882812 800 l 1
 184.379882812 372.190429688 l 1
 595.100585938 372.190429688 l 1
 595.100585938 800 l 1
EndSplineSet
EndChar

StartChar: I
Encoding: 73 73 60
Width: 224
VWidth: 0
Flags: HW
LayerCount: 2
Fore
SplineSet
40 1 m 1
 40 800 l 1
 184.380859375 800 l 1
 184.380859375 1 l 1
 40 1 l 1
EndSplineSet
EndChar

StartChar: J
Encoding: 74 74 61
Width: 401
VWidth: 0
Flags: HW
LayerCount: 2
Fore
SplineSet
360.870117188 800 m 1
 361.870117188 800 l 1
 361.16015625 233.780273438 l 2
 361 105.169921875 256.700195312 1 128.08984375 1 c 2
 40 1 l 1
 40 145.370117188 l 1
 122.370117188 145.370117188 l 2
 174.881835938 145.370117188 217.5 187.98828125 217.5 240.5 c 2
 217.5 655.629882812 l 1
 112.690429688 655.629882812 l 1
 112.690429688 800 l 1
 360.870117188 800 l 1
EndSplineSet
EndChar

StartChar: K
Encoding: 75 75 62
Width: 693
VWidth: 0
Flags: HW
LayerCount: 2
Fore
SplineSet
653.290039062 800 m 1
 253.780273438 400.5 l 1
 653.290039062 1 l 1
 449.110351562 1 l 1
 184.379882812 265.73046875 l 1
 184.379882812 1 l 1
 40 1 l 1
 40 800 l 1
 184.379882812 800 l 1
 184.379882812 535.26953125 l 1
 449.110351562 800 l 1
 653.290039062 800 l 1
EndSplineSet
EndChar

StartChar: L
Encoding: 76 76 63
Width: 695
VWidth: 0
Flags: HW
LayerCount: 2
Fore
SplineSet
184.370117188 145.370117188 m 1
 655.5 145.370117188 l 1
 655.5 1 l 1
 184.370117188 1 l 1
 40 1 l 1
 40 1 l 1
 40 800 l 1
 184.370117188 800 l 1
 184.370117188 145.370117188 l 1
EndSplineSet
EndChar

StartChar: M
Encoding: 77 77 64
Width: 844
VWidth: 0
Flags: HW
LayerCount: 2
Fore
SplineSet
661.790039062 800 m 1
 804.8203125 800 l 1
 804.8203125 1 l 1
 660.450195312 1 l 1
 660.450195312 518.959960938 l 1
 422.41015625 125.66015625 l 1
 184.370117188 518.959960938 l 1
 184.370117188 1 l 1
 40 1 l 1
 40 800 l 1
 184.370117188 800 l 1
 422.41015625 404.490234375 l 1
 661.790039062 800 l 1
EndSplineSet
EndChar

StartChar: N
Encoding: 78 78 65
Width: 795
VWidth: 0
Flags: HW
LayerCount: 2
Fore
SplineSet
611.100585938 800.009765625 m 1
 755.48046875 800.009765625 l 1
 755.48046875 1.009765625 l 1
 611.440429688 1.009765625 l 1
 611.100585938 1.009765625 l 1
 611.100585938 1.4501953125 l 1
 184.379882812 561.379882812 l 1
 184.379882812 1.009765625 l 1
 40 1.009765625 l 1
 40 800.009765625 l 1
 184.040039062 800.009765625 l 1
 184.379882812 800.009765625 l 1
 184.379882812 799.559570312 l 1
 611.100585938 239.639648438 l 1
 611.100585938 800.009765625 l 1
EndSplineSet
EndChar

StartChar: O
Encoding: 79 79 66
Width: 837
VWidth: 0
Flags: HW
LayerCount: 2
Fore
SplineSet
418.599609375 805.330078125 m 0
 626.149414062 805.330078125 797.19921875 635.51953125 797.19921875 428 c 2
 797.19921875 372.360351562 l 2
 797.19921875 164.809570312 626.149414062 -5 418.599609375 -5 c 0
 211.049804688 -5 40 164.809570312 40 372.389648438 c 2
 40 428 l 2
 40 635.51953125 211.049804688 805.330078125 418.599609375 805.330078125 c 0
652.819335938 383 m 2
 652.819335938 417.370117188 l 2
 652.819335938 545.76953125 547 650.860351562 418.599609375 650.860351562 c 0
 290.19921875 650.860351562 184.379882812 545.799804688 184.379882812 417.400390625 c 2
 184.379882812 383 l 2
 184.379882812 254.559570312 290.19921875 149.540039062 418.599609375 149.540039062 c 0
 547 149.540039062 652.819335938 254.58984375 652.819335938 383 c 2
EndSplineSet
EndChar

StartChar: T
Encoding: 84 84 67
Width: 779
VWidth: 0
Flags: HW
LayerCount: 2
Fore
SplineSet
739.48046875 800 m 1
 739.48046875 655.620117188 l 1
 461.930664062 655.620117188 l 1
 461.930664062 1 l 1
 317.549804688 1 l 1
 317.549804688 655.620117188 l 1
 40 655.620117188 l 1
 40 800 l 1
 739.48046875 800 l 1
EndSplineSet
EndChar

StartChar: Y
Encoding: 89 89 68
Width: 853
VWidth: 0
Flags: HW
LayerCount: 2
Fore
SplineSet
810.780273438 800 m 1
 483.530273438 250.639648438 l 1
 483.530273438 0 l 1
 369.530273438 0 l 1
 369.530273438 250.639648438 l 1
 42.2802734375 800 l 1
 174.970703125 800 l 1
 426.530273438 377.709960938 l 1
 678.08984375 800 l 1
 810.780273438 800 l 1
813.060546875 800 m 1
 498.720703125 273.8203125 l 1
 498.720703125 0 l 1
 354.33984375 0 l 1
 354.33984375 273.8203125 l 1
 40 800 l 1
 208.169921875 800 l 1
 426.530273438 434.5 l 1
 644.890625 800 l 1
 813.060546875 800 l 1
EndSplineSet
EndChar

StartChar: Z
Encoding: 90 90 69
Width: 735
VWidth: 0
Flags: HW
LayerCount: 2
Fore
SplineSet
40 144.370117188 m 1
 40 144.290039062 l 1
 40.0791015625 144.370117188 l 1
 40 144.370117188 l 1
40 800 m 1
 695.0390625 800 l 1
 695.0390625 655.709960938 l 1
 695.0390625 655.620117188 l 1
 694.959960938 655.620117188 l 1
 234.399414062 144.370117188 l 1
 695.0390625 144.370117188 l 1
 695.0390625 0 l 1
 40 0 l 1
 40 144.290039062 l 1
 40.0791015625 144.370117188 l 1
 500.639648438 655.620117188 l 1
 40 655.620117188 l 1
 40 800 l 1
EndSplineSet
EndChar

StartChar: A
Encoding: 65 65 70
Width: 939
VWidth: 0
Flags: HW
LayerCount: 2
Fore
SplineSet
741.490234375 1 m 1
 641.919921875 227.809570312 l 1
 297.240234375 227.809570312 l 1
 197.669921875 1 l 1
 40 1 l 1
 390.740234375 800 l 1
 548.419921875 800 l 1
 899.16015625 1 l 1
 741.490234375 1 l 1
360.580078125 372.190429688 m 1
 578.580078125 372.190429688 l 1
 469.580078125 620.41015625 l 1
 360.580078125 372.190429688 l 1
EndSplineSet
EndChar

StartChar: B
Encoding: 66 66 71
Width: 725
VWidth: 0
Flags: HW
LayerCount: 2
Fore
SplineSet
685.560546875 564.16015625 m 0
 685.560546875 564.05859375 685.560546875 563.893554688 685.560546875 563.791015625 c 0
 685.560546875 511.360351562 655.9921875 438.206054688 619.560546875 400.5 c 1
 655.9921875 362.793945312 685.560546875 289.639648438 685.560546875 237.208984375 c 0
 685.560546875 237.106445312 685.560546875 236.94140625 685.560546875 236.83984375 c 1
 685.560546875 236.83984375 l 1
 685.560546875 106.58984375 579.970703125 1 449.720703125 1 c 2
 40 1 l 1
 40 800 l 1
 449.720703125 800 l 2
 579.970703125 800 685.560546875 694.41015625 685.560546875 564.16015625 c 0
449.720703125 655.620117188 m 2
 184.370117188 655.620117188 l 1
 184.370117188 472.690429688 l 1
 449.720703125 472.690429688 l 2
 500.211914062 472.690429688 541.190429688 513.668945312 541.190429688 564.16015625 c 1
 541.190429688 564.16015625 l 1
 541.190429688 614.645507812 500.215820312 655.620117188 449.73046875 655.620117188 c 0
 449.727539062 655.620117188 449.72265625 655.620117188 449.720703125 655.620117188 c 2
541.190429688 236.83984375 m 0
 541.190429688 287.331054688 500.211914062 328.309570312 449.720703125 328.309570312 c 1
 449.720703125 328.309570312 449.720703125 328.309570312 449.720703125 328.309570312 c 2
 184.370117188 328.309570312 l 1
 184.370117188 145.370117188 l 1
 449.720703125 145.370117188 l 2
 500.211914062 145.370117188 541.190429688 186.348632812 541.190429688 236.83984375 c 0
EndSplineSet
EndChar

StartChar: P
Encoding: 80 80 72
Width: 725
VWidth: 0
Flags: HW
LayerCount: 2
Fore
SplineSet
412 800 m 2
 563.100585938 800 685.590820312 677.509765625 685.590820312 526.41015625 c 1
 685.590820312 526.41015625 l 1
 685.590820312 375.299804688 563.100585938 252.809570312 412 252.809570312 c 2
 184.390625 252.809570312 l 1
 184.390625 1 l 1
 40 1 l 1
 40 800 l 1
 412 800 l 2
541.2109375 526.41015625 m 0
 541.2109375 597.734375 483.32421875 655.620117188 412 655.620117188 c 0
 411.998046875 655.620117188 411.993164062 655.620117188 411.990234375 655.620117188 c 2
 184.390625 655.620117188 l 1
 184.390625 397.190429688 l 1
 411.990234375 397.190429688 l 2
 483.3203125 397.190429688 541.2109375 455.080078125 541.2109375 526.41015625 c 0
EndSplineSet
EndChar

StartChar: Q
Encoding: 81 81 73
Width: 850
VWidth: 0
Flags: HW
LayerCount: 2
Fore
SplineSet
726.959960938 154.349609375 m 1
 747.870117188 140.356445312 785.260742188 129 810.421875 129 c 0
 810.470703125 129 810.55078125 129 810.599609375 129 c 2
 810.599609375 -25 l 2
 810.493164062 -25 810.321289062 -25 810.21484375 -25 c 0
 776.337890625 -25 723.5390625 -14.248046875 692.359375 -1 c 0
 668.12109375 9.2607421875 632.25 31.5126953125 612.290039062 48.669921875 c 1
 562.969726562 19.0439453125 476.247070312 -5 418.712890625 -5 c 0
 418.681640625 -5 418.630859375 -5 418.599609375 -5 c 0
 211.049804688 -5 40 164.809570312 40 372.389648438 c 2
 40 428 l 2
 40 635.51953125 211.049804688 805.330078125 418.599609375 805.330078125 c 0
 626.149414062 805.330078125 797.19921875 635.51953125 797.19921875 428 c 2
 797.19921875 372.349609375 l 2
 797.198242188 305.936523438 765.73046875 208.272460938 726.959960938 154.349609375 c 1
184.379882812 383 m 2
 184.379882812 254.559570312 290.19921875 149.540039062 418.599609375 149.540039062 c 0
 547 149.540039062 652.819335938 254.58984375 652.819335938 383 c 2
 652.819335938 417.370117188 l 2
 652.819335938 545.76953125 547 650.860351562 418.599609375 650.860351562 c 0
 290.19921875 650.860351562 184.379882812 545.799804688 184.379882812 417.400390625 c 2
 184.379882812 383 l 2
EndSplineSet
EndChar

StartChar: R
Encoding: 82 82 74
Width: 725
VWidth: 0
Flags: HW
LayerCount: 2
Fore
SplineSet
685.599609375 526.41015625 m 0
 685.599609375 404.830078125 606.290039062 301.799804688 496.599609375 266.169921875 c 1
 682.479492188 1 l 1
 506.159179688 1 l 1
 329.649414062 252.809570312 l 1
 184.399414062 252.809570312 l 1
 184.399414062 1 l 1
 40 1 l 1
 40 800 l 1
 412 800 l 2
 563.099609375 800 685.599609375 677.509765625 685.599609375 526.41015625 c 0
184.399414062 655.620117188 m 1
 184.399414062 397.190429688 l 1
 412 397.190429688 l 2
 412.313476562 397.1875 412.822265625 397.184570312 413.13671875 397.184570312 c 0
 484.465820312 397.184570312 542.356445312 455.075195312 542.356445312 526.405273438 c 0
 542.356445312 597.734375 484.465820312 655.625 413.13671875 655.625 c 0
 412.822265625 655.625 412.313476562 655.623046875 412 655.620117188 c 2
 184.399414062 655.620117188 l 1
EndSplineSet
EndChar

StartChar: U
Encoding: 85 85 75
Width: 735
VWidth: 0
Flags: HW
LayerCount: 2
Fore
SplineSet
550.629882812 800 m 1
 695 800 l 1
 695 322.5 l 2
 695 141.629882812 548.370117188 -5 367.5 -5 c 1
 367.5 -5 l 1
 186.629882812 -5 40 141.629882812 40 322.5 c 2
 40 800 l 1
 184.379882812 800 l 1
 184.379882812 322.5 l 2
 184.379882812 221.370117188 266.360351562 139.370117188 367.5 139.370117188 c 1
 367.5 139.370117188 l 1
 468.587890625 139.370117188 550.629882812 221.412109375 550.629882812 322.5 c 2
 550.629882812 800 l 1
EndSplineSet
EndChar

StartChar: V
Encoding: 86 86 76
Width: 929
VWidth: 0
Flags: HW
LayerCount: 2
Fore
SplineSet
732.240234375 799 m 1
 889.580078125 799 l 1
 543.459960938 0 l 1
 386.120117188 0 l 1
 40 799 l 1
 197.33984375 799 l 1
 464.790039062 181.599609375 l 1
 732.240234375 799 l 1
EndSplineSet
EndChar

StartChar: W
Encoding: 87 87 77
Width: 1085
VWidth: 0
Flags: HW
LayerCount: 2
Fore
SplineSet
1045.6796875 800 m 1
 839.26953125 1 l 1
 688.790039062 1 l 1
 542.3203125 394.469726562 l 1
 390.790039062 1 l 1
 246.41015625 1 l 1
 40 800 l 1
 188.899414062 800 l 1
 330.450195312 239.16015625 l 1
 470.649414062 601.389648438 l 1
 615.030273438 601.389648438 l 1
 754.809570312 237.490234375 l 1
 896.780273438 800 l 1
 1045.6796875 800 l 1
EndSplineSet
EndChar

StartChar: X
Encoding: 88 88 78
Width: 851
VWidth: 0
Flags: HW
LayerCount: 2
Fore
SplineSet
515.329101562 400.5 m 1
 811.0390625 1 l 1
 631.419921875 1 l 1
 425.51953125 279.169921875 l 1
 219.619140625 1 l 1
 40 1 l 1
 335.709960938 400.5 l 1
 40 800 l 1
 219.619140625 800 l 1
 425.51953125 521.830078125 l 1
 631.419921875 800 l 1
 811.0390625 800 l 1
 515.329101562 400.5 l 1
EndSplineSet
EndChar

StartChar: exclam
Encoding: 33 33 79
Width: 240
VWidth: 0
Flags: HW
LayerCount: 2
Fore
SplineSet
43 197.650390625 m 1
 43 800 l 1
 197 800 l 1
 197 197.650390625 l 1
 43 197.650390625 l 1
40 80 m 0
 40 124.182617188 75.8173828125 160 120 160 c 0
 164.182617188 160 200 124.182617188 200 80 c 0
 200 35.8173828125 164.182617188 0 120 0 c 0
 75.8173828125 0 40 35.8173828125 40 80 c 0
EndSplineSet
EndChar

StartChar: numbersign
Encoding: 35 35 80
Width: 680
VWidth: 0
Flags: HW
LayerCount: 2
Fore
SplineSet
640 340 m 1
 510 340 l 1
 510 260 l 1
 640 260 l 1
 640 130 l 1
 510 130 l 1
 510 0 l 1
 380 0 l 1
 380 130 l 1
 300 130 l 1
 300 0 l 1
 170 0 l 1
 170 130 l 1
 40 130 l 1
 40 260 l 1
 170 260 l 1
 170 340 l 1
 40 340 l 1
 40 470 l 1
 170 470 l 1
 170 600 l 1
 300 600 l 1
 300 470 l 1
 380 470 l 1
 380 600 l 1
 510 600 l 1
 510 470 l 1
 640 470 l 1
 640 340 l 1
380 260 m 1
 380 340 l 1
 300 340 l 1
 300 260 l 1
 380 260 l 1
EndSplineSet
EndChar

StartChar: dollar
Encoding: 36 36 81
Width: 634
VWidth: 0
Flags: HW
LayerCount: 2
Fore
SplineSet
572.001953125 355.490234375 m 0
 588.602539062 328.080078125 595.942382812 295.139648438 593.791992188 257.5703125 c 2
 593.791992188 256.809570312 l 1
 593.692382812 256.059570312 l 2
 593.412109375 253.959960938 586.372070312 203.959960938 545.772460938 156.059570312 c 0
 522.072265625 128 491.671875 106.41015625 455.58203125 91.75 c 0
 437.849609375 84.673828125 408.138671875 76.6103515625 389.262695312 73.75 c 1
 389.262695312 -4 l 1
 244.881835938 -4 l 1
 244.881835938 75.6796875 l 1
 175.322265625 87.1904296875 122.72265625 113.25 88.142578125 153.5 c 0
 40.8525390625 208.540039062 46.0625 269.530273438 46.302734375 272.08984375 c 2
 187.362304688 282.200195312 l 1
 187.8125 277.799804688 196.171875 215.83984375 306.732421875 209.629882812 c 0
 355.412109375 206.900390625 392.961914062 216.969726562 415.322265625 238.76953125 c 0
 428.232421875 251.400390625 432.352539062 264.200195312 433.232421875 267.48046875 c 0
 433.412109375 273.91015625 431.8125 285.450195312 403.58203125 297.139648438 c 0
 378.692382812 307.4296875 342.052734375 314.240234375 303.262695312 321.4296875 c 0
 244.982421875 332.219726562 178.921875 344.459960938 127.791992188 372.889648438 c 0
 98.412109375 389.219726562 76.9619140625 408.98046875 62.22265625 433.280273438 c 0
 45.6025390625 460.669921875 38.2421875 493.5703125 40.3525390625 531.0703125 c 2
 40.3525390625 531.830078125 l 1
 40.4521484375 532.580078125 l 2
 40.732421875 534.690429688 47.7626953125 584.6796875 88.3720703125 632.580078125 c 0
 112.122070312 660.599609375 142.461914062 682.240234375 178.5625 696.889648438 c 0
 196.29296875 703.969726562 226.004882812 712.034179688 244.881835938 714.889648438 c 1
 244.881835938 800 l 1
 389.262695312 800 l 1
 389.262695312 713 l 1
 458.822265625 701.450195312 511.421875 675.379882812 546.001953125 635.139648438 c 0
 593.291992188 580.08984375 588.08203125 519.110351562 587.841796875 516.540039062 c 2
 446.782226562 506.4296875 l 1
 446.33203125 510.83984375 437.97265625 572.799804688 327.452148438 579.009765625 c 0
 221.711914062 584.950195312 203.182617188 529.719726562 200.952148438 521.129882812 c 0
 200.762695312 514.620117188 202.392578125 502.990234375 230.65234375 491.299804688 c 0
 255.5625 480.990234375 292.2421875 474.25 331.072265625 467.120117188 c 0
 389.33203125 456.419921875 455.372070312 444.280273438 506.47265625 415.889648438 c 0
 535.841796875 399.580078125 557.272460938 379.8203125 572.001953125 355.490234375 c 0
EndSplineSet
EndChar

StartChar: percent
Encoding: 37 37 82
Width: 791
VWidth: 0
Flags: HW
LayerCount: 2
Fore
SplineSet
593.919921875 231 m 0
 580.879882812 231 569.4296875 219.76953125 569.4296875 207 c 2
 569.4296875 183.799804688 l 2
 569.4296875 171.009765625 580.879882812 159.799804688 593.919921875 159.799804688 c 0
 606.959960938 159.799804688 618.41015625 171.040039062 618.41015625 183.799804688 c 2
 618.41015625 207 l 2
 618.41015625 219.799804688 606.919921875 231 593.919921875 231 c 0
593.919921875 364.440429688 m 1
 593.919921875 364.41015625 l 1
 680.490234375 364.41015625 751.83984375 293.5703125 751.83984375 207 c 2
 751.83984375 183.830078125 l 2
 751.83984375 97.259765625 680.490234375 26.4296875 593.919921875 26.4296875 c 0
 507.349609375 26.4296875 436 97.259765625 436 183.830078125 c 2
 436 207.030273438 l 2
 436 293.599609375 507.349609375 364.440429688 593.919921875 364.440429688 c 1
197.919921875 587 m 0
 184.879882812 587 173.4296875 575.76953125 173.4296875 563 c 2
 173.4296875 539.799804688 l 2
 173.4296875 527.009765625 184.879882812 515.799804688 197.919921875 515.799804688 c 0
 210.959960938 515.799804688 222.41015625 527.040039062 222.41015625 539.799804688 c 2
 222.41015625 563 l 2
 222.41015625 575.799804688 210.919921875 587 197.919921875 587 c 0
197.919921875 720.440429688 m 1
 197.919921875 720.41015625 l 1
 284.490234375 720.41015625 355.83984375 649.5703125 355.83984375 563 c 2
 355.83984375 539.830078125 l 2
 355.83984375 453.259765625 284.490234375 382.4296875 197.919921875 382.4296875 c 0
 111.349609375 382.4296875 40 453.259765625 40 539.830078125 c 2
 40 563.030273438 l 2
 40 649.599609375 111.349609375 720.440429688 197.919921875 720.440429688 c 1
135.169921875 0 m 1
 506.689453125 746.900390625 l 1
 656.669921875 746.900390625 l 1
 285.150390625 0 l 1
 135.169921875 0 l 1
EndSplineSet
EndChar

StartChar: parenleft
Encoding: 40 40 83
Width: 384
VWidth: 0
Flags: HW
LayerCount: 2
Fore
SplineSet
193.440429688 278.51953125 m 2
 193.440429688 60.919921875 344.640625 19 344.640625 19 c 1
 312.690429688 -99.5703125 l 1
 161.680664062 -85.9404296875 40.580078125 74.7001953125 40 269.4296875 c 1
 40 269.4296875 l 1
 40 429.5703125 l 2
 40 624.9296875 161.3203125 786.299804688 312.700195312 800 c 1
 344.640625 681.360351562 l 1
 344.640625 681.360351562 193.440429688 639.48046875 193.440429688 421.879882812 c 2
 193.440429688 278.51953125 l 2
EndSplineSet
EndChar

StartChar: parenright
Encoding: 41 41 84
Width: 384
VWidth: 0
Flags: HW
LayerCount: 2
Fore
SplineSet
191.200195312 421.879882812 m 2
 191.200195312 639.48046875 40 681.360351562 40 681.360351562 c 1
 71.9404296875 800 l 1
 222.950195312 786.33984375 344.05078125 625.690429688 344.640625 431 c 1
 344.640625 431 l 1
 344.640625 270.8203125 l 2
 344.640625 75.4697265625 223.3203125 -85.91015625 71.9404296875 -99.599609375 c 1
 40 19.0400390625 l 1
 40 19.0400390625 191.200195312 60.919921875 191.200195312 278.51953125 c 2
 191.200195312 421.879882812 l 2
EndSplineSet
EndChar

StartChar: copyright
Encoding: 169 169 85
Width: 839
VWidth: 0
Flags: HW
LayerCount: 2
Fore
SplineSet
769.259765625 473.469726562 m 0
 785.864257812 434.720703125 799.33984375 369.05859375 799.33984375 326.90234375 c 0
 799.33984375 326.766601562 799.33984375 326.545898438 799.33984375 326.41015625 c 2
 799.33984375 273.58984375 l 2
 799.33984375 273.454101562 799.33984375 273.233398438 799.33984375 273.09765625 c 0
 799.33984375 230.94140625 785.864257812 165.279296875 769.259765625 126.530273438 c 0
 735.708984375 48.49609375 645.029296875 -41.7890625 566.849609375 -75 c 0
 527.901367188 -91.48828125 461.96484375 -104.870117188 419.669921875 -104.870117188 c 0
 377.375 -104.870117188 311.438476562 -91.48828125 272.490234375 -75 c 0
 194.310546875 -41.7890625 103.630859375 48.49609375 70.080078125 126.530273438 c 0
 53.4755859375 165.279296875 40 230.94140625 40 273.09765625 c 0
 40 273.233398438 40 273.454101562 40 273.58984375 c 2
 40 326.41015625 l 2
 40 326.545898438 40 326.766601562 40 326.90234375 c 0
 40 369.05859375 53.4755859375 434.720703125 70.080078125 473.469726562 c 0
 103.630859375 551.50390625 194.310546875 641.7890625 272.490234375 675 c 0
 311.438476562 691.48828125 377.375 704.870117188 419.669921875 704.870117188 c 0
 461.96484375 704.870117188 527.901367188 691.48828125 566.849609375 675 c 0
 645.029296875 641.7890625 735.708984375 551.50390625 769.259765625 473.469726562 c 0
680.099609375 332.309570312 m 2
 680.099609375 473.629882812 563.26953125 588.58984375 419.669921875 588.58984375 c 0
 276.0703125 588.58984375 159.240234375 473.629882812 159.240234375 332.309570312 c 2
 159.240234375 267.690429688 l 2
 159.240234375 126.41015625 276.0703125 11.41015625 419.669921875 11.41015625 c 0
 563.26953125 11.41015625 680.099609375 126.370117188 680.099609375 267.690429688 c 2
 680.099609375 332.309570312 l 2
526.219726562 518 m 0
 551.956054688 505.014648438 587.127929688 475.948242188 604.729492188 453.120117188 c 2
 615.419921875 439.209960938 l 1
 525.669921875 349.459960938 l 1
 512.280273438 370.459960938 l 2
 495.30078125 397.401367188 455.674804688 419.266601562 423.830078125 419.266601562 c 0
 366.118164062 419.266601562 319.280273438 372.428710938 319.280273438 314.716796875 c 0
 319.280273438 314.678710938 319.280273438 314.618164062 319.280273438 314.580078125 c 2
 319.280273438 285.4296875 l 2
 319.280273438 285.392578125 319.280273438 285.331054688 319.280273438 285.29296875 c 0
 319.280273438 227.581054688 366.118164062 180.743164062 423.830078125 180.743164062 c 0
 455.674804688 180.743164062 495.30078125 202.608398438 512.280273438 229.549804688 c 2
 525.669921875 250.549804688 l 1
 615.439453125 160.799804688 l 1
 604.75 146.889648438 l 2
 566.966796875 97.72265625 485.977539062 57.765625 423.969726562 57.7001953125 c 0
 363.530273438 57.7001953125 306.540039062 81.3095703125 263.299804688 124.349609375 c 0
 220.059570312 167.389648438 196.25 224.349609375 196.25 284.75 c 2
 196.25 315.25 l 2
 196.25 375.650390625 220.129882812 432.669921875 263.299804688 475.650390625 c 0
 306.469726562 518.629882812 363.530273438 542.299804688 423.969726562 542.299804688 c 0
 453.775390625 542.260742188 499.583007812 531.374023438 526.219726562 518 c 0
EndSplineSet
EndChar

StartChar: registered
Encoding: 174 174 86
Width: 839
VWidth: 0
Flags: HW
LayerCount: 2
Fore
SplineSet
769.259765625 473.469726562 m 0
 785.864257812 434.720703125 799.33984375 369.05859375 799.33984375 326.90234375 c 0
 799.33984375 326.766601562 799.33984375 326.545898438 799.33984375 326.41015625 c 2
 799.33984375 273.58984375 l 2
 799.33984375 273.454101562 799.33984375 273.233398438 799.33984375 273.09765625 c 0
 799.33984375 230.94140625 785.864257812 165.279296875 769.259765625 126.530273438 c 0
 735.708984375 48.49609375 645.029296875 -41.7890625 566.849609375 -75 c 0
 527.901367188 -91.48828125 461.96484375 -104.870117188 419.669921875 -104.870117188 c 0
 377.375 -104.870117188 311.438476562 -91.48828125 272.490234375 -75 c 0
 194.310546875 -41.7890625 103.630859375 48.49609375 70.080078125 126.530273438 c 0
 53.4755859375 165.279296875 40 230.94140625 40 273.09765625 c 0
 40 273.233398438 40 273.454101562 40 273.58984375 c 2
 40 326.41015625 l 2
 40 326.545898438 40 326.766601562 40 326.90234375 c 0
 40 369.05859375 53.4755859375 434.720703125 70.080078125 473.469726562 c 0
 103.630859375 551.50390625 194.310546875 641.7890625 272.490234375 675 c 0
 311.438476562 691.48828125 377.375 704.870117188 419.669921875 704.870117188 c 0
 461.96484375 704.870117188 527.901367188 691.48828125 566.849609375 675 c 0
 645.029296875 641.7890625 735.708984375 551.50390625 769.259765625 473.469726562 c 0
419.669921875 11.41015625 m 0
 563.26953125 11.41015625 680.099609375 126.370117188 680.099609375 267.690429688 c 2
 680.099609375 332.309570312 l 2
 680.099609375 473.58984375 563.26953125 588.58984375 419.669921875 588.58984375 c 0
 276.0703125 588.58984375 159.240234375 473.629882812 159.240234375 332.309570312 c 2
 159.240234375 267.690429688 l 2
 159.240234375 126.41015625 276.0703125 11.41015625 419.669921875 11.41015625 c 0
443.259765625 506.849609375 m 2
 535.530273438 506.849609375 610.599609375 431.780273438 610.599609375 339.509765625 c 0
 610.598632812 277.3046875 563.818359375 207.833984375 506.1796875 184.440429688 c 1
 594.33984375 93.150390625 l 1
 426.669921875 93.150390625 l 1
 378.959960938 142.599609375 l 1
 378.959960938 93.150390625 l 1
 259.729492188 93.150390625 l 1
 259.729492188 506.849609375 l 1
 443.259765625 506.849609375 l 2
443.259765625 291.41015625 m 2
 443.451171875 291.407226562 443.76171875 291.405273438 443.953125 291.405273438 c 0
 470.509765625 291.405273438 492.063476562 312.958007812 492.063476562 339.514648438 c 0
 492.063476562 366.071289062 470.509765625 387.625 443.953125 387.625 c 0
 443.76171875 387.625 443.451171875 387.623046875 443.259765625 387.620117188 c 2
 378.959960938 387.620117188 l 1
 378.959960938 291.41015625 l 1
 443.259765625 291.41015625 l 2
EndSplineSet
EndChar

StartChar: multiply
Encoding: 170 215 87
Width: 476
VWidth: 0
Flags: HW
LayerCount: 2
Fore
SplineSet
436.619140625 196.049804688 m 1
 342.259765625 101.690429688 l 1
 238.309570312 205.639648438 l 1
 134.359375 101.690429688 l 1
 40 196.049804688 l 1
 143.94921875 300 l 1
 40 403.950195312 l 1
 134.359375 498.309570312 l 1
 238.309570312 394.360351562 l 1
 342.259765625 498.309570312 l 1
 436.619140625 403.950195312 l 1
 332.669921875 300 l 1
 436.619140625 196.049804688 l 1
EndSplineSet
EndChar

StartChar: period
Encoding: 46 46 88
Width: 240
VWidth: 0
Flags: HW
LayerCount: 2
Fore
SplineSet
40 80 m 0
 40 124.182617188 75.8173828125 160 120 160 c 0
 164.182617188 160 200 124.182617188 200 80 c 0
 200 35.8173828125 164.182617188 0 120 0 c 0
 75.8173828125 0 40 35.8173828125 40 80 c 0
EndSplineSet
EndChar

StartChar: comma
Encoding: 44 44 89
Width: 280
VWidth: 0
Flags: HW
LayerCount: 2
Fore
SplineSet
109.66015625 204.83984375 m 5
 240.889648438 171.459960938 l 5
 235.950195312 152.080078125 l 6
 207.719726562 41.1201171875 173.700195312 -19.75 150.129882812 -51.26953125 c 6
 137.950195312 -67.5400390625 l 5
 40 7.9296875 l 5
 48.1494140625 22.9296875 l 6
 65.3896484375 54.6298828125 95.83984375 136.950195312 105.479492188 184.26953125 c 6
 109.66015625 204.83984375 l 5
EndSplineSet
EndChar

StartChar: at
Encoding: 64 64 90
Width: 839
VWidth: 0
Flags: HW
LayerCount: 2
Fore
SplineSet
769.259765625 473.469726562 m 0
 785.864257812 434.720703125 799.33984375 369.05859375 799.33984375 326.90234375 c 0
 799.33984375 326.766601562 799.33984375 326.545898438 799.33984375 326.41015625 c 2
 799.33984375 195.219726562 l 2
 799.33984375 119.389648438 737.650390625 57.7001953125 661.8203125 57.7001953125 c 0
 661.793945312 57.7001953125 661.752929688 57.7001953125 661.7265625 57.7001953125 c 0
 627.19921875 57.7001953125 580.787109375 78.845703125 558.129882812 104.900390625 c 1
 524.374023438 78.845703125 462.37109375 57.7001953125 419.729492188 57.7001953125 c 0
 419.712890625 57.7001953125 419.686523438 57.7001953125 419.669921875 57.7001953125 c 0
 359.229492188 57.7001953125 302.240234375 81.3095703125 259 124.349609375 c 0
 215.759765625 167.389648438 191.950195312 224.349609375 191.950195312 284.75 c 2
 191.950195312 315.25 l 2
 191.950195312 375.650390625 215.830078125 432.669921875 259 475.650390625 c 0
 302.169921875 518.629882812 359.229492188 542.299804688 419.669921875 542.299804688 c 0
 480.110351562 542.299804688 537.099609375 518.690429688 580.33984375 475.650390625 c 0
 623.580078125 432.610351562 647.389648438 375.650390625 647.389648438 315.25 c 2
 647.389648438 197.139648438 l 2
 647.607421875 188.333007812 654.934570312 181.184570312 663.745117188 181.184570312 c 0
 672.5546875 181.184570312 679.881835938 188.333007812 680.099609375 197.139648438 c 2
 680.099609375 332.309570312 l 2
 680.099609375 473.58984375 563.26953125 588.58984375 419.669921875 588.58984375 c 0
 276.0703125 588.58984375 159.240234375 473.629882812 159.240234375 332.309570312 c 2
 159.240234375 267.650390625 l 2
 159.240234375 126.370117188 276.0703125 11.3701171875 419.669921875 11.3701171875 c 0
 455.30859375 11.400390625 509.856445312 24.83984375 541.4296875 41.3701171875 c 2
 562.08984375 52.2197265625 l 1
 600.26953125 -59.330078125 l 1
 584.33984375 -67.0498046875 l 2
 541.284179688 -87.9267578125 467.504882812 -104.869140625 419.655273438 -104.869140625 c 0
 377.364257812 -104.869140625 311.434570312 -91.48828125 272.490234375 -75 c 0
 194.310546875 -41.7890625 103.630859375 48.49609375 70.080078125 126.530273438 c 0
 53.4755859375 165.279296875 40 230.94140625 40 273.09765625 c 0
 40 273.233398438 40 273.454101562 40 273.58984375 c 2
 40 326.41015625 l 2
 40 326.545898438 40 326.766601562 40 326.90234375 c 0
 40 369.05859375 53.4755859375 434.720703125 70.080078125 473.469726562 c 0
 103.630859375 551.50390625 194.310546875 641.7890625 272.490234375 675 c 0
 311.438476562 691.48828125 377.375 704.870117188 419.669921875 704.870117188 c 0
 461.96484375 704.870117188 527.901367188 691.48828125 566.849609375 675 c 0
 645.029296875 641.7890625 735.708984375 551.50390625 769.259765625 473.469726562 c 0
419.669921875 180.790039062 m 0
 477.359375 180.856445312 524.233398438 227.73046875 524.299804688 285.419921875 c 2
 524.299804688 314.580078125 l 2
 524.299804688 372.3359375 477.42578125 419.209960938 419.669921875 419.209960938 c 0
 361.9140625 419.209960938 315.040039062 372.3359375 315.040039062 314.580078125 c 2
 315.040039062 285.419921875 l 2
 315.106445312 227.73046875 361.98046875 180.856445312 419.669921875 180.790039062 c 0
EndSplineSet
EndChar

StartChar: semicolon
Encoding: 59 59 91
Width: 280
VWidth: 0
Flags: HW
LayerCount: 2
Fore
SplineSet
109.66015625 204.83984375 m 5
 240.889648438 171.459960938 l 5
 235.950195312 152.080078125 l 6
 207.719726562 41.1201171875 173.700195312 -19.75 150.129882812 -51.26953125 c 6
 137.950195312 -67.5400390625 l 5
 40 7.9296875 l 5
 48.1494140625 22.9296875 l 6
 65.3896484375 54.6298828125 95.83984375 136.950195312 105.479492188 184.26953125 c 6
 109.66015625 204.83984375 l 5
61.1298828125 442.990234375 m 0
 61.1298828125 487.172851562 96.947265625 522.990234375 141.129882812 522.990234375 c 0
 185.3125 522.990234375 221.129882812 487.172851562 221.129882812 442.990234375 c 0
 221.129882812 398.807617188 185.3125 362.990234375 141.129882812 362.990234375 c 0
 96.947265625 362.990234375 61.1298828125 398.807617188 61.1298828125 442.990234375 c 0
EndSplineSet
EndChar

StartChar: braceleft
Encoding: 123 123 92
Width: 418
VWidth: 0
Flags: HW
LayerCount: 2
Fore
SplineSet
242.680664062 573.690429688 m 2
 242.680664062 455.860351562 l 2
 242.680664062 392.129882812 191.680664062 350.200195312 191.680664062 350.200195312 c 1
 191.680664062 350.200195312 l 1
 191.680664062 350.200195312 242.680664062 308.26953125 242.680664062 244.540039062 c 2
 242.680664062 126.709960938 l 2
 242.680664062 81.3095703125 317.48046875 30.419921875 378.98046875 21.3798828125 c 1
 357.75 -99.6201171875 l 1
 212.100585938 -99.6201171875 93.6103515625 34.669921875 93.6103515625 146.75 c 2
 93.6103515625 279.950195312 l 2
 93.6103515625 292.629882812 84.8701171875 304.950195312 68.390625 304.950195312 c 2
 40 304.950195312 l 1
 40 395.48046875 l 1
 68.390625 395.48046875 l 2
 84.8701171875 395.48046875 93.6103515625 407.76953125 93.6103515625 420.48046875 c 2
 93.6103515625 553.629882812 l 2
 93.6103515625 665.709960938 212.100585938 800 357.75 800 c 1
 378.98046875 679 l 1
 317.490234375 670 242.680664062 619.08984375 242.680664062 573.690429688 c 2
EndSplineSet
EndChar

StartChar: braceright
Encoding: 125 125 93
Width: 418
VWidth: 0
Flags: HW
LayerCount: 2
Fore
SplineSet
176.299804688 126.709960938 m 2
 176.299804688 244.540039062 l 2
 176.299804688 308.26953125 227.299804688 350.200195312 227.299804688 350.200195312 c 1
 227.299804688 350.200195312 l 1
 227.299804688 350.200195312 176.299804688 392.129882812 176.299804688 455.860351562 c 2
 176.299804688 573.690429688 l 2
 176.299804688 619.08984375 101.5 669.98046875 40 679.009765625 c 1
 61.23046875 800 l 1
 206.879882812 800 325.370117188 665.709960938 325.370117188 553.629882812 c 2
 325.370117188 420.450195312 l 2
 325.370117188 407.76953125 334.110351562 395.450195312 350.58984375 395.450195312 c 2
 378.98046875 395.450195312 l 1
 378.98046875 304.889648438 l 1
 350.58984375 304.889648438 l 2
 334.110351562 304.889648438 325.370117188 292.599609375 325.370117188 279.889648438 c 2
 325.370117188 146.76953125 l 2
 325.370117188 34.6904296875 206.879882812 -99.599609375 61.23046875 -99.599609375 c 1
 40 21.400390625 l 1
 101.490234375 30.419921875 176.299804688 81.3095703125 176.299804688 126.709960938 c 2
EndSplineSet
EndChar

StartChar: equal
Encoding: 61 61 94
Width: 497
VWidth: 0
Flags: HW
LayerCount: 2
Fore
SplineSet
40 326.780273438 m 1
 40 468.719726562 l 1
 457.73046875 468.719726562 l 1
 457.73046875 326.780273438 l 1
 40 326.780273438 l 1
40 131.280273438 m 1
 40 273.219726562 l 1
 457.73046875 273.219726562 l 1
 457.73046875 131.280273438 l 1
 40 131.280273438 l 1
EndSplineSet
EndChar

StartChar: bracketleft
Encoding: 91 91 95
Width: 349
VWidth: 0
Flags: HW
LayerCount: 2
Fore
SplineSet
40 -99.599609375 m 1
 40 800 l 1
 309.6796875 800 l 1
 309.6796875 655.620117188 l 1
 184.370117188 655.620117188 l 1
 184.370117188 44.76953125 l 1
 309.6796875 44.76953125 l 1
 309.6796875 -99.599609375 l 1
 40 -99.599609375 l 1
EndSplineSet
EndChar

StartChar: bracketright
Encoding: 93 93 96
Width: 349
VWidth: 0
Flags: HW
LayerCount: 2
Fore
SplineSet
309.6796875 800 m 1
 309.6796875 -99.599609375 l 1
 40 -99.599609375 l 1
 40 44.76953125 l 1
 165.309570312 44.76953125 l 1
 165.309570312 655.620117188 l 1
 40 655.620117188 l 1
 40 800 l 1
 309.6796875 800 l 1
EndSplineSet
EndChar

StartChar: divide
Encoding: 186 247 97
Width: 547
VWidth: 0
Flags: HW
LayerCount: 2
Fore
SplineSet
193.73046875 146.26953125 m 0
 193.73046875 190.453125 229.547851562 226.26953125 273.73046875 226.26953125 c 0
 317.913085938 226.26953125 353.73046875 190.453125 353.73046875 146.26953125 c 0
 353.73046875 102.086914062 317.913085938 66.26953125 273.73046875 66.26953125 c 0
 229.547851562 66.26953125 193.73046875 102.086914062 193.73046875 146.26953125 c 0
193.73046875 453.73046875 m 0
 193.73046875 497.913085938 229.547851562 533.73046875 273.73046875 533.73046875 c 0
 317.913085938 533.73046875 353.73046875 497.913085938 353.73046875 453.73046875 c 0
 353.73046875 409.546875 317.913085938 373.73046875 273.73046875 373.73046875 c 0
 229.547851562 373.73046875 193.73046875 409.546875 193.73046875 453.73046875 c 0
40 250.459960938 m 1
 40 349.530273438 l 1
 507.470703125 349.530273438 l 1
 507.470703125 250.459960938 l 1
 40 250.459960938 l 1
EndSplineSet
EndChar

StartChar: sterling
Encoding: 163 163 98
Width: 577
VWidth: 0
Flags: HW
LayerCount: 2
Fore
SplineSet
367.23046875 655.620117188 m 2
 367.227539062 655.620117188 367.22265625 655.620117188 367.219726562 655.620117188 c 0
 316.137695312 655.620117188 274.6796875 614.162109375 274.6796875 563.080078125 c 0
 274.6796875 563.077148438 274.6796875 563.073242188 274.6796875 563.0703125 c 2
 274.6796875 371.23046875 l 1
 537.16015625 371.23046875 l 1
 537.16015625 229.290039062 l 1
 274.6796875 229.290039062 l 1
 274.6796875 140.389648438 l 1
 537.16015625 140.389648438 l 1
 537.16015625 -4 l 1
 130.299804688 -4 l 1
 130.299804688 229.290039062 l 1
 40 229.290039062 l 1
 40 371.23046875 l 1
 130.299804688 371.23046875 l 1
 130.299804688 570.080078125 l 2
 130.299804688 697.059570312 233.219726562 800 360.219726562 800 c 2
 537.16015625 800 l 1
 537.16015625 655.620117188 l 1
 367.23046875 655.620117188 l 2
EndSplineSet
EndChar

StartChar: cent
Encoding: 162 162 99
Width: 637
VWidth: 0
Flags: HW
LayerCount: 2
Fore
SplineSet
345 227 m 0
 396.75 227 444.400390625 253.290039062 472.4296875 297.370117188 c 1
 597.790039062 206.370117188 l 1
 587.100585938 192.459960938 l 2
 545.838867188 138.766601562 458.030273438 86.84375 391.100585938 76.5595703125 c 1
 391.100585938 -4 l 1
 246.75 -4 l 1
 246.75 89.3603515625 l 1
 240.010742188 91.6669921875 233.34375 94.2138671875 226.75 97 c 0
 163.942382812 123.676757812 91.1064453125 196.212890625 64.169921875 258.91015625 c 0
 50.828125 290.041992188 40 342.796875 40 376.666992188 c 0
 40 376.778320312 40 376.958984375 40 377.0703125 c 2
 40 418.9296875 l 2
 40 419.041015625 40 419.221679688 40 419.333007812 c 0
 40 453.203125 50.828125 505.958007812 64.169921875 537.08984375 c 0
 91.099609375 599.782226562 163.922851562 672.317382812 226.719726562 699 c 0
 233.333984375 701.780273438 240 704.326171875 246.719726562 706.639648438 c 1
 246.719726562 800 l 1
 391.129882812 800 l 1
 391.129882812 719.48046875 l 1
 458.060546875 709.196289062 545.868164062 657.272460938 587.129882812 603.580078125 c 2
 597.8203125 589.669921875 l 1
 472.459960938 498.669921875 l 1
 444.400390625 542.709960938 396.75 569 345 569 c 0
 261.740234375 569 194 501.259765625 194 418 c 2
 194 378 l 2
 194 294.740234375 261.740234375 227 345 227 c 0
EndSplineSet
EndChar

StartChar: yen
Encoding: 165 165 100
Width: 718
VWidth: 0
Flags: HW
LayerCount: 2
Fore
SplineSet
678.3203125 800 m 1
 466.9296875 371.23046875 l 1
 572.6796875 371.23046875 l 1
 572.6796875 229.290039062 l 1
 431.350585938 229.290039062 l 1
 431.350585938 0 l 1
 286.969726562 0 l 1
 286.969726562 229.290039062 l 1
 145.640625 229.290039062 l 1
 145.640625 371.23046875 l 1
 251.390625 371.23046875 l 1
 40 800 l 1
 200.959960938 800 l 1
 359.16015625 479.120117188 l 1
 517.360351562 800 l 1
 678.3203125 800 l 1
EndSplineSet
EndChar

StartChar: zero
Encoding: 48 48 101
Width: 650
VWidth: 0
Flags: HW
LayerCount: 2
Fore
SplineSet
325 764 m 0
 481.240234375 764 610 623.200195312 610 426.620117188 c 2
 610 333.950195312 l 2
 610 137.379882812 481.240234375 -3.4599609375 325 -3.4599609375 c 0
 168.759765625 -3.4599609375 40 137.379882812 40 333.950195312 c 2
 40 426.620117188 l 2
 40 623.200195312 168.759765625 764 325 764 c 0
465.620117188 351.389648438 m 2
 465.620117188 409.190429688 l 2
 465.620117188 531.809570312 402.08984375 619.66015625 325 619.66015625 c 0
 247.91015625 619.66015625 184.370117188 531.809570312 184.370117188 409.190429688 c 2
 184.370117188 351.389648438 l 2
 184.370117188 228.759765625 247.91015625 140.91015625 325 140.91015625 c 0
 402.08984375 140.91015625 465.620117188 228.759765625 465.620117188 351.389648438 c 2
EndSplineSet
EndChar

StartChar: one
Encoding: 49 49 102
Width: 341
VWidth: 0
Flags: HW
LayerCount: 2
Fore
SplineSet
81.099609375 746.900390625 m 1
 301.209960938 746.900390625 l 1
 301.209960938 0 l 1
 156.830078125 0 l 1
 156.830078125 602.530273438 l 1
 81.099609375 602.530273438 l 1
 81.099609375 746.900390625 l 1
154 -749.889648438 m 2
 154 -971 294.419921875 -1037 294.419921875 -1037 c 1
 277.139648438 -1134.12988281 l 1
 145.809570312 -1120.21972656 40.5 -956.990234375 40 -759.129882812 c 1
 40 -759.129882812 l 1
 40 -596.400390625 l 2
 40 -397.900390625 145.509765625 -233.919921875 277.150390625 -220 c 1
 294.419921875 -317.0703125 l 1
 294.419921875 -317.0703125 154 -383.110351562 154 -604.219726562 c 2
 154 -749.889648438 l 2
EndSplineSet
EndChar

StartChar: two
Encoding: 50 50 103
Width: 618
VWidth: 0
Flags: HW
LayerCount: 2
Fore
SplineSet
338.389648438 154 m 1
 578 154 l 1
 578 0 l 1
 64.16015625 0 l 1
 64.16015625 154 l 1
 64.16015625 154 429.610351562 335 429.610351562 495.919921875 c 0
 429.610351562 563.600585938 374.680664062 618.530273438 307 618.530273438 c 0
 239.319335938 618.530273438 184.389648438 563.600585938 184.389648438 495.919921875 c 1
 40 495.919921875 l 1
 40 643.389648438 159.540039062 762.919921875 307 762.919921875 c 0
 454.459960938 762.919921875 574 643.379882812 574 495.919921875 c 0
 574 367.490234375 460.370117188 236.41015625 338.389648438 154 c 1
EndSplineSet
EndChar

StartChar: three
Encoding: 51 51 104
Width: 588
VWidth: 0
Flags: HW
LayerCount: 2
Fore
SplineSet
282.41015625 -604.219726562 m 2
 282.41015625 -383.110351562 142 -317.0703125 142 -317.0703125 c 1
 159.270507812 -220 l 1
 290.600585938 -233.900390625 395.91015625 -397.139648438 396.41015625 -595 c 1
 396.41015625 -595 l 1
 396.41015625 -757.669921875 l 2
 396.41015625 -956.169921875 290.900390625 -1120.15039062 159.259765625 -1134.0703125 c 1
 141.990234375 -1037 l 1
 141.990234375 -1037 282.41015625 -971 282.41015625 -749.889648438 c 2
 282.41015625 -604.219726562 l 2
388.540039062 501.299804688 m 1
 467.641601562 459.946289062 531.83984375 353.942382812 531.83984375 264.68359375 c 0
 531.83984375 264.666015625 531.83984375 264.637695312 531.83984375 264.620117188 c 0
 531.83984375 117.150390625 412.299804688 -2.3798828125 264.83984375 -2.3798828125 c 0
 264.805664062 -2.3798828125 264.749023438 -2.3798828125 264.713867188 -2.3798828125 c 0
 184.111328125 -2.3798828125 83.439453125 52.7236328125 40 120.620117188 c 1
 156.120117188 207.9296875 l 1
 175.098632812 171.55859375 223.796875 142.040039062 264.822265625 142.040039062 c 0
 332.502929688 142.040039062 387.431640625 196.969726562 387.431640625 264.650390625 c 0
 387.431640625 332.3203125 332.510742188 387.25 264.83984375 387.259765625 c 2
 141.98046875 387.259765625 l 1
 282.200195312 602.530273438 l 1
 66.490234375 602.530273438 l 1
 66.490234375 746.900390625 l 1
 548.490234375 746.900390625 l 1
 388.540039062 501.299804688 l 1
EndSplineSet
EndChar

StartChar: four
Encoding: 52 52 105
Width: 713
VWidth: 0
Flags: HW
LayerCount: 2
Fore
SplineSet
673.91015625 277 m 1
 673.91015625 132.610351562 l 1
 594.809570312 132.610351562 l 1
 594.809570312 0 l 1
 450.4296875 0 l 1
 450.4296875 132.610351562 l 1
 40 132.610351562 l 1
 450.439453125 746.900390625 l 1
 594.809570312 746.900390625 l 1
 594.809570312 277 l 1
 673.91015625 277 l 1
310.099609375 277 m 1
 450.4296875 277 l 1
 450.4296875 487 l 1
 310.099609375 277 l 1
EndSplineSet
EndChar

StartChar: five
Encoding: 53 53 106
Width: 571
VWidth: 0
Flags: HW
LayerCount: 2
Fore
SplineSet
264.83984375 531.639648438 m 0
 412.30078125 531.639648438 531.83984375 412.08984375 531.83984375 264.620117188 c 0
 531.83984375 117.150390625 412.30078125 -2.3798828125 264.83984375 -2.3798828125 c 0
 264.80859375 -2.3798828125 264.756835938 -2.3798828125 264.725585938 -2.3798828125 c 0
 184.120117188 -2.3798828125 83.443359375 52.7236328125 40 120.620117188 c 1
 156.120117188 207.9296875 l 1
 175.098632812 171.55859375 223.796875 142.040039062 264.822265625 142.040039062 c 0
 332.502929688 142.040039062 387.431640625 196.969726562 387.431640625 264.650390625 c 0
 387.431640625 332.3203125 332.510742188 387.25 264.83984375 387.259765625 c 2
 85.2099609375 387.259765625 l 1
 85.2099609375 746.900390625 l 1
 504.83984375 746.900390625 l 1
 504.83984375 602.530273438 l 1
 229.580078125 602.530273438 l 1
 229.580078125 530.639648438 l 1
 240.08984375 531.299804688 251.760742188 531.639648438 264.83984375 531.639648438 c 0
EndSplineSet
EndChar

StartChar: six
Encoding: 54 54 107
Width: 605
VWidth: 0
Flags: HW
LayerCount: 2
Fore
SplineSet
302.5 -2.330078125 m 0
 157.5 -2.330078125 40 115.190429688 40 260.169921875 c 0
 40 519.25 216.08984375 680.23046875 343.809570312 762.91015625 c 1
 416 652.080078125 l 1
 285.540039062 560.120117188 230.719726562 460 230.719726562 460 c 1
 287.059570312 539.330078125 565 522 565 260.169921875 c 0
 565 115.190429688 447.5 -2.330078125 302.5 -2.330078125 c 0
302.5 377.16015625 m 0
 237.297851562 377.16015625 184.379882812 324.2421875 184.379882812 259.040039062 c 0
 184.379882812 259.029296875 184.379882812 259.010742188 184.379882812 259 c 0
 184.396484375 193.80859375 237.318359375 140.900390625 302.509765625 140.900390625 c 0
 367.717773438 140.900390625 420.639648438 193.822265625 420.639648438 259.030273438 c 0
 420.639648438 324.237304688 367.717773438 377.16015625 302.509765625 377.16015625 c 0
 302.506835938 377.16015625 302.502929688 377.16015625 302.5 377.16015625 c 0
EndSplineSet
EndChar

StartChar: seven
Encoding: 55 55 108
Width: 604
VWidth: 0
Flags: HW
LayerCount: 2
Fore
SplineSet
172.41015625 0 m 1
 192.41015625 385.559570312 406.0703125 602.530273438 406.0703125 602.530273438 c 1
 40 602.530273438 l 1
 40 746.900390625 l 1
 564.8203125 746.900390625 l 1
 564.8203125 602.530273438 l 1
 564.8203125 602.530273438 339.9296875 362.610351562 317.169921875 0 c 1
 172.41015625 0 l 1
EndSplineSet
EndChar

StartChar: eight
Encoding: 56 56 109
Width: 605
VWidth: 0
Flags: HW
LayerCount: 2
Fore
SplineSet
465.849609375 465.650390625 m 1
 520.581054688 422.223632812 565 330.275390625 565 260.409179688 c 0
 565 260.342773438 565 260.236328125 565 260.169921875 c 0
 565 115.190429688 447.469726562 -2.330078125 302.5 -2.330078125 c 0
 157.530273438 -2.330078125 40 115.169921875 40 260.169921875 c 0
 40 260.236328125 40 260.342773438 40 260.409179688 c 0
 40 330.275390625 84.4189453125 422.223632812 139.150390625 465.650390625 c 1
 122.506835938 491.776367188 109 538.122070312 109 569.099609375 c 0
 109 569.185546875 109 569.32421875 109 569.41015625 c 0
 109 676.280273438 195.629882812 762.91015625 302.5 762.91015625 c 0
 409.370117188 762.91015625 496 676.280273438 496 569.41015625 c 0
 496 569.32421875 496 569.185546875 496 569.099609375 c 0
 496 538.122070312 482.493164062 491.776367188 465.849609375 465.650390625 c 1
302.5 618.540039062 m 0
 274.70703125 618.534179688 252.150390625 595.973632812 252.150390625 568.1796875 c 0
 252.150390625 568.1796875 252.150390625 568.1796875 252.150390625 568.1796875 c 0
 252.150390625 540.380859375 274.7109375 517.8203125 302.509765625 517.8203125 c 0
 330.30859375 517.8203125 352.870117188 540.380859375 352.870117188 568.1796875 c 0
 352.870117188 595.978515625 330.30859375 618.540039062 302.509765625 618.540039062 c 0
 302.506835938 618.540039062 302.502929688 618.540039062 302.5 618.540039062 c 0
302.5 142 m 0
 302.502929688 142 302.506835938 142 302.509765625 142 c 0
 367.711914062 142 420.629882812 194.91796875 420.629882812 260.120117188 c 0
 420.629882812 260.133789062 420.629882812 260.15625 420.629882812 260.169921875 c 0
 420.608398438 325.35546875 367.685546875 378.259765625 302.5 378.259765625 c 0
 237.291992188 378.259765625 184.370117188 325.337890625 184.370117188 260.129882812 c 0
 184.370117188 194.921875 237.291992188 142 302.5 142 c 0
EndSplineSet
EndChar

StartChar: nine
Encoding: 57 57 110
Width: 605
VWidth: 0
Flags: HW
LayerCount: 2
Fore
SplineSet
277.120117188 -430.759765625 m 2
 277.120117188 -385.639648438 219.919921875 -320 172.879882812 -311 c 1
 189.120117188 -220 l 1
 300.5 -220 391.120117188 -353.459960938 391.120117188 -464.83984375 c 2
 391.120117188 -597.190429688 l 2
 391.120117188 -609.790039062 401.330078125 -622 413.9296875 -622 c 2
 432.120117188 -622 l 1
 432.120117188 -712 l 1
 413.9296875 -712 l 2
 401.330078125 -712 391.120117188 -724.209960938 391.120117188 -736.809570312 c 2
 391.120117188 -869.129882812 l 2
 391.120117188 -980.509765625 300.5 -1113.96972656 189.120117188 -1113.96972656 c 1
 172.879882812 -1022.96972656 l 1
 219.919921875 -1013.98046875 277.120117188 -948.360351562 277.120117188 -903.240234375 c 2
 277.120117188 -772 l 2
 277.120117188 -708.669921875 326.799804688 -667 326.799804688 -667 c 1
 326.799804688 -667 l 1
 326.799804688 -667 277.120117188 -625.330078125 277.120117188 -562 c 2
 277.120117188 -430.759765625 l 2
302.5 762.91015625 m 0
 447.5 762.91015625 565 645.389648438 565 500.41015625 c 0
 565 241.3203125 388.91015625 80.349609375 261.190429688 -2.330078125 c 1
 189 108.5 l 1
 319.459960938 200.459960938 374.280273438 300.580078125 374.280273438 300.580078125 c 1
 317.940429688 221.240234375 40 238.599609375 40 500.41015625 c 0
 40 645.389648438 157.5 762.91015625 302.5 762.91015625 c 0
302.5 383.41015625 m 0
 302.502929688 383.41015625 302.506835938 383.41015625 302.509765625 383.41015625 c 0
 367.711914062 383.41015625 420.629882812 436.328125 420.629882812 501.530273438 c 0
 420.629882812 501.533203125 420.629882812 501.537109375 420.629882812 501.540039062 c 0
 420.629882812 566.748046875 367.708007812 619.669921875 302.5 619.669921875 c 0
 237.291992188 619.669921875 184.370117188 566.748046875 184.370117188 501.540039062 c 0
 184.370117188 436.33203125 237.291992188 383.41015625 302.5 383.41015625 c 0
EndSplineSet
EndChar

StartChar: ampersand
Encoding: 38 38 111
Width: 744
VWidth: 0
Flags: HW
LayerCount: 2
Fore
SplineSet
322.251953125 588.450195312 m 2
 704.431640625 -2.4296875 l 1
 534.33203125 -2.4296875 l 1
 470.33203125 96.5703125 l 1
 463.301757812 86.1767578125 450.395507812 70.541015625 441.521484375 61.669921875 c 0
 403.494140625 23.6455078125 328.986328125 -7.21484375 275.209960938 -7.21484375 c 0
 145.374023438 -7.21484375 40 98.1591796875 40 227.995117188 c 0
 40 337.430664062 127.53515625 441.284179688 235.391601562 459.809570312 c 1
 202.391601562 510.809570312 l 2
 185.920898438 536.233398438 172.552734375 581.451171875 172.552734375 611.743164062 c 0
 172.552734375 714.2109375 255.715820312 797.374023438 358.18359375 797.374023438 c 0
 369.002929688 797.374023438 386.37109375 795.540039062 396.952148438 793.280273438 c 0
 478.071289062 776.010742188 543.90625 694.684570312 543.90625 611.748046875 c 0
 543.90625 556.061523438 505.981445312 486.287109375 459.251953125 456 c 1
 381.51171875 575.809570312 l 1
 392.27734375 582.799804688 401.014648438 598.888671875 401.014648438 611.724609375 c 0
 401.014648438 635.361328125 381.831054688 654.543945312 358.194335938 654.543945312 c 0
 334.557617188 654.543945312 315.374023438 635.361328125 315.374023438 611.724609375 c 0
 315.374023438 604.739257812 318.455078125 594.3125 322.251953125 588.450195312 c 2
367.572265625 228 m 0
 367.505859375 278.89453125 326.146484375 320.262695312 275.251953125 320.33984375 c 0
 275.241210938 320.33984375 275.22265625 320.33984375 275.211914062 320.33984375 c 0
 224.229492188 320.33984375 182.8515625 278.962890625 182.8515625 227.98046875 c 0
 182.8515625 176.997070312 224.229492188 135.620117188 275.211914062 135.620117188 c 0
 326.194335938 135.620117188 367.572265625 176.997070312 367.572265625 227.98046875 c 0
 367.572265625 227.985351562 367.572265625 227.994140625 367.572265625 228 c 0
EndSplineSet
EndChar

StartChar: asterisk
Encoding: 42 42 112
Width: 568
VWidth: 0
Flags: HW
LayerCount: 2
Fore
SplineSet
528.560546875 303.650390625 m 1
 389.450195312 258.450195312 l 1
 475.430664062 140.120117188 l 1
 370.260742188 63.7099609375 l 1
 284.280273438 182.040039062 l 1
 198.299804688 63.7099609375 l 1
 93.1298828125 140.120117188 l 1
 179.110351562 258.450195312 l 1
 40 303.650390625 l 1
 80.169921875 427.290039062 l 1
 219.280273438 382.08984375 l 1
 219.280273438 528.360351562 l 1
 349.280273438 528.360351562 l 1
 349.280273438 382.08984375 l 1
 488.390625 427.290039062 l 1
 528.560546875 303.650390625 l 1
EndSplineSet
EndChar

StartChar: plus
Encoding: 43 43 113
Width: 507
VWidth: 0
Flags: HW
LayerCount: 2
Fore
SplineSet
467.4609375 366.719726562 m 1
 467.4609375 233.280273438 l 1
 320.450195312 233.280273438 l 1
 320.450195312 86.26953125 l 1
 187.010742188 86.26953125 l 1
 187.010742188 233.280273438 l 1
 40 233.280273438 l 1
 40 366.719726562 l 1
 187.010742188 366.719726562 l 1
 187.010742188 513.73046875 l 1
 320.450195312 513.73046875 l 1
 320.450195312 366.719726562 l 1
 467.4609375 366.719726562 l 1
EndSplineSet
EndChar

StartChar: quotedbl
Encoding: 34 34 114
Width: 422
VWidth: 0
Flags: HW
LayerCount: 2
Fore
SplineSet
71.919921875 758 m 1
 206.30078125 758 l 1
 206.30078125 738 l 2
 206.30078125 657 197.530273438 589.870117188 180.200195312 538.400390625 c 0
 166.700195312 498.209960938 152.459960938 482.110351562 150.880859375 480.400390625 c 2
 141 469.75 l 1
 40 516.440429688 l 1
 46.1201171875 533.639648438 l 2
 61.6103515625 577.16015625 71.919921875 628.5703125 71.919921875 738 c 2
 71.919921875 758 l 1
247.919921875 758 m 1
 382.30078125 758 l 1
 382.30078125 738 l 2
 382.30078125 657 373.530273438 589.870117188 356.200195312 538.400390625 c 0
 342.700195312 498.209960938 328.459960938 482.110351562 326.880859375 480.400390625 c 2
 317 469.75 l 1
 216 516.440429688 l 1
 222.120117188 533.639648438 l 2
 237.610351562 577.16015625 247.919921875 628.5703125 247.919921875 738 c 2
 247.919921875 758 l 1
EndSplineSet
EndChar

StartChar: colon
Encoding: 58 58 115
Width: 240
VWidth: 0
Flags: HW
LayerCount: 2
Fore
SplineSet
40 80 m 0
 40 124.182617188 75.8173828125 160 120 160 c 0
 164.182617188 160 200 124.182617188 200 80 c 0
 200 35.8173828125 164.182617188 0 120 0 c 0
 75.8173828125 0 40 35.8173828125 40 80 c 0
40 442.990234375 m 4
 40 487.172851562 75.8173828125 522.990234375 120 522.990234375 c 4
 164.182617188 522.990234375 200 487.172851562 200 442.990234375 c 4
 200 398.807617188 164.182617188 362.990234375 120 362.990234375 c 4
 75.8173828125 362.990234375 40 398.807617188 40 442.990234375 c 4
EndSplineSet
EndChar

StartChar: less
Encoding: 60 60 116
Width: 486
VWidth: 0
Flags: HW
LayerCount: 2
Fore
SplineSet
446.880859375 110.900390625 m 1
 337.990234375 2.009765625 l 1
 40 300 l 1
 337.990234375 597.990234375 l 1
 446.880859375 489.099609375 l 1
 257.790039062 300 l 1
 446.880859375 110.900390625 l 1
EndSplineSet
EndChar

StartChar: greater
Encoding: 62 62 117
Width: 486
VWidth: 0
Flags: HW
LayerCount: 2
Fore
SplineSet
40 489.099609375 m 1
 148.890625 597.990234375 l 1
 446.880859375 300 l 1
 148.890625 2.009765625 l 1
 40 110.900390625 l 1
 229.090820312 300 l 1
 40 489.099609375 l 1
EndSplineSet
EndChar

StartChar: slash
Encoding: 47 47 118
Width: 544
VWidth: 0
Flags: HW
LayerCount: 2
Fore
SplineSet
40 -114.110351562 m 1
 340.209960938 800 l 1
 504.080078125 800 l 1
 203.870117188 -114.110351562 l 1
 40 -114.110351562 l 1
EndSplineSet
EndChar

StartChar: backslash
Encoding: 92 92 119
Width: 544
VWidth: 0
Flags: HW
LayerCount: 2
Fore
SplineSet
340.209960938 -114.110351562 m 1
 40 800 l 1
 203.870117188 800 l 1
 504.080078125 -114.110351562 l 1
 340.209960938 -114.110351562 l 1
EndSplineSet
EndChar

StartChar: S
Encoding: 83 83 120
Width: 794
VWidth: 0
Flags: HW
LayerCount: 2
Fore
SplineSet
721.530273438 355.580078125 m 0
 743.259765625 326.169921875 754.280273438 290.16015625 754.280273438 248.490234375 c 0
 754.280273438 245.849609375 753.759765625 183 708.280273438 120.3203125 c 0
 681.75 83.759765625 645.440429688 54.7197265625 600.349609375 34 c 0
 545.4296875 8.7900390625 477.280273438 -4 397.790039062 -4 c 0
 326.219726562 -4 263.690429688 6.4404296875 212 26.9296875 c 0
 168.23046875 44.259765625 131.799804688 68.900390625 103.66015625 100.169921875 c 0
 53.9296875 155.459960938 43.7900390625 215.900390625 41.7900390625 239.3203125 c 2
 40 259.9296875 l 1
 193.690429688 282.83984375 l 1
 193.690429688 247.959960938 l 2
 193.759765625 246.129882812 195.040039062 223.16015625 218.25 199.73046875 c 0
 241.459960938 176.299804688 291.459960938 148.370117188 397.83984375 148.370117188 c 0
 503.830078125 148.370117188 553.849609375 176.3203125 577.150390625 199.76953125 c 0
 600 222.790039062 601.870117188 245.51953125 602 248 c 1
 602 248 l 1
 601.669921875 293.8203125 535.76953125 306.26953125 428.419921875 322.790039062 c 0
 417.400390625 324.48046875 406.009765625 326.23046875 394.540039062 328.0703125 c 2
 385.740234375 329.299804688 l 2
 308.889648438 339.969726562 229.370117188 351.040039062 168.740234375 380.299804688 c 0
 134.209960938 396.969726562 108.599609375 417.91015625 90.599609375 444.299804688 c 0
 70.66015625 473.469726562 60.490234375 509.370117188 60.3603515625 551.009765625 c 0
 59.7197265625 561.48046875 57.1298828125 641.48046875 119.790039062 709.48046875 c 0
 177.6796875 772.389648438 271.23046875 804.290039062 397.790039062 804.290039062 c 0
 515.080078125 804.290039062 604.280273438 776.75 662.919921875 722.4296875 c 0
 712.139648438 676.830078125 728.509765625 623.0703125 733.509765625 586 c 2
 736.440429688 564.530273438 l 1
 585.349609375 542 l 1
 583.059570312 565 l 2
 580.459960938 591.150390625 557.209960938 652 397.790039062 652 c 0
 293.709960938 652 248.849609375 625.23046875 229.540039062 602.780273438 c 0
 209.490234375 579.5 212.389648438 556.0703125 212.389648438 555.83984375 c 2
 212.639648438 554.209960938 l 1
 212.639648438 552.5703125 l 2
 212.639648438 529.540039062 223.669921875 515.459960938 250.719726562 503.969726562 c 0
 280.700195312 491.259765625 325.709960938 484.1796875 377.830078125 475.969726562 c 0
 385.430664062 474.783203125 393.173828125 473.556640625 401.059570312 472.290039062 c 0
 406.266601562 471.563476562 411.493164062 470.83984375 416.740234375 470.120117188 c 0
 494.75 459.3203125 575.4296875 448.169921875 639.059570312 418.959960938 c 0
 675.360351562 402.290039062 702.33984375 381.580078125 721.530273438 355.580078125 c 0
EndSplineSet
EndChar

StartChar: hyphen
Encoding: 45 45 121
Width: 389
VWidth: 0
Flags: HW
LayerCount: 2
Fore
SplineSet
40 223 m 1
 40 377 l 1
 349 377 l 1
 349 223 l 1
 40 223 l 1
EndSplineSet
EndChar

StartChar: question
Encoding: 63 63 122
Width: 601
VWidth: 0
Flags: HW
LayerCount: 2
Fore
SplineSet
195.66015625 517.580078125 m 1
 43.2802734375 495 l 1
 41.470703125 506.3828125 40.0009765625 524.974609375 40 536.5 c 0
 40.0009765625 680.515625 156.883789062 797.3984375 300.900390625 797.3984375 c 0
 444.916992188 797.3984375 561.799804688 680.514648438 561.799804688 536.498046875 c 0
 561.799804688 476.837890625 527.559570312 394.182617188 485.370117188 352 c 2
 325.690429688 192.309570312 l 1
 216.790039062 301.200195312 l 1
 376.490234375 460.900390625 l 2
 393.7734375 478.18359375 407.799804688 512.046875 407.799804688 536.489257812 c 0
 407.799804688 595.498046875 359.909179688 643.389648438 300.900390625 643.389648438 c 0
 241.897460938 643.389648438 194.005859375 595.502929688 194 536.5 c 0
 194 536.484375 194 536.458984375 194 536.442382812 c 0
 194 531.196289062 194.744140625 522.74609375 195.66015625 517.580078125 c 1
215.370117188 80 m 0
 215.370117188 124.182617188 251.1875 160 295.370117188 160 c 0
 339.552734375 160 375.370117188 124.182617188 375.370117188 80 c 0
 375.370117188 35.8173828125 339.552734375 0 295.370117188 0 c 0
 251.1875 0 215.370117188 35.8173828125 215.370117188 80 c 0
EndSplineSet
EndChar

StartChar: quotesingle
Encoding: 39 39 123
Width: 246
VWidth: 0
Flags: HW
LayerCount: 2
Fore
SplineSet
200.1796875 533.639648438 m 2
 206.26953125 516.419921875 l 1
 105.26953125 469.73046875 l 1
 95.400390625 480.379882812 l 2
 93.8203125 482.110351562 79.5703125 498.209960938 66.0703125 538.379882812 c 0
 48.76953125 589.870117188 40 657 40 738 c 2
 40 758 l 1
 174.379882812 758 l 1
 174.379882812 738 l 2
 174.379882812 628.5703125 184.669921875 577.16015625 200.1796875 533.639648438 c 2
EndSplineSet
EndChar

StartChar: grave
Encoding: 96 96 124
Width: 246
VWidth: 0
Flags: HW
LayerCount: 2
Fore
SplineSet
71.919921875 758 m 1
 206.299804688 758 l 1
 206.299804688 738 l 2
 206.299804688 657 197.530273438 589.870117188 180.200195312 538.400390625 c 0
 166.700195312 498.209960938 152.450195312 482.110351562 150.870117188 480.400390625 c 2
 141 469.75 l 1
 40 516.440429688 l 1
 46.1201171875 533.639648438 l 2
 61.599609375 577.16015625 71.919921875 628.5703125 71.919921875 738 c 2
 71.919921875 758 l 1
EndSplineSet
EndChar

StartChar: bar
Encoding: 124 124 125
Width: 234
VWidth: 0
Flags: HW
LayerCount: 2
Fore
SplineSet
40 -172.700195312 m 1
 40 766.900390625 l 1
 194 766.900390625 l 1
 194 -172.700195312 l 1
 40 -172.700195312 l 1
EndSplineSet
EndChar

StartChar: asciicircum
Encoding: 94 94 126
Width: 600
VWidth: 0
Flags: HW
LayerCount: 2
Fore
SplineSet
300.440429688 606.540039062 m 1
 560.880859375 346.110351562 l 1
 451.98046875 237.209960938 l 1
 300.440429688 388.75 l 1
 148.900390625 237.209960938 l 1
 40 346.110351562 l 1
 300.440429688 606.540039062 l 1
EndSplineSet
EndChar

StartChar: underscore
Encoding: 95 95 127
Width: 579
VWidth: 0
Flags: HW
LayerCount: 2
Fore
SplineSet
40 0 m 1
 40 130 l 1
 539.470703125 130 l 1
 539.470703125 0 l 1
 40 0 l 1
EndSplineSet
EndChar

StartChar: asciitilde
Encoding: 126 126 128
Width: 585
VWidth: 0
Flags: HW
LayerCount: 2
Fore
SplineSet
545.549804688 577.259765625 m 1
 545.629882812 556.009765625 l 2
 545.779296875 515.6796875 534.779296875 478.8203125 513.779296875 449.389648438 c 0
 494.469726562 422.309570312 467.19921875 401.849609375 434.919921875 390.219726562 c 0
 418.517578125 384.330078125 391.061523438 379.549804688 373.633789062 379.549804688 c 0
 326.365234375 379.549804688 263.629882812 409.17578125 233.599609375 445.6796875 c 0
 223.189453125 458.360351562 204.389648438 465.309570312 188.599609375 454.0703125 c 0
 181.5078125 449.046875 175.584960938 437.91796875 175.379882812 429.23046875 c 2
 174.83984375 411 l 1
 40 402.58984375 l 1
 41.1796875 425 l 2
 43.599609375 471 58.529296875 511.83984375 84.3896484375 543.26953125 c 0
 104.288085938 567.568359375 145.154296875 593.51171875 175.609375 601.1796875 c 0
 208.609375 609.580078125 243.909179688 608.040039062 275.009765625 596.830078125 c 0
 303.354492188 586.728515625 339.08203125 557.684570312 354.759765625 532 c 0
 358.1484375 526.662109375 365.948242188 521.416015625 372.169921875 520.290039062 c 0
 373.935546875 519.948242188 376.827148438 519.671875 378.625976562 519.671875 c 0
 384.55859375 519.671875 393.314453125 522.439453125 398.169921875 525.849609375 c 0
 405.256835938 530.872070312 411.1796875 541.99609375 411.389648438 550.6796875 c 2
 411.9296875 568.919921875 l 1
 545.549804688 577.259765625 l 1
EndSplineSet
EndChar

